<?xml version="1.0" encoding="utf-8" ?>
<svg baseProfile="full" height="526" version="1.1" width="467" xmlns="http://www.w3.org/2000/svg" xmlns:ev="http://www.w3.org/2001/xml-events" xmlns:xlink="http://www.w3.org/1999/xlink"><defs /><polygon fill="#4647C2" points="249,384 248,385 247,385 247,386 245,388 244,388 244,389 240,393 240,394 239,395 239,396 236,399 236,400 235,401 235,402 233,404 233,407 232,408 232,410 234,410 235,411 236,411 237,412 238,412 239,413 240,413 241,414 242,414 244,416 245,416 247,418 248,418 251,421 252,421 255,424 256,424 257,425 258,425 260,423 261,423 262,422 262,421 266,417 266,416 269,413 269,412 270,411 271,412 272,412 274,414 275,414 276,415 277,415 279,417 280,417 283,420 284,420 287,423 288,423 290,425 291,425 294,422 295,422 297,420 297,419 299,417 300,417 300,416 301,415 301,414 302,413 303,413 303,411 306,408 306,406 307,405 307,399 306,398 306,397 305,396 305,395 303,393 302,393 300,391 299,391 298,390 297,390 296,389 295,389 294,388 292,388 290,386 288,386 287,385 284,385 283,384 282,384 276,390 276,391 274,393 274,394 272,396 271,396 270,395 270,394 269,394 266,391 265,391 264,390 263,390 261,388 260,388 259,387 257,387 256,386 254,386 253,385 251,385 250,384" /><polygon fill="#4647C2" points="334,268 333,269 329,269 328,270 326,270 325,271 324,271 323,272 321,272 320,273 319,273 318,274 317,274 316,275 315,275 314,276 313,276 311,278 309,278 308,279 307,279 306,280 305,280 304,281 303,281 302,282 300,282 299,283 298,283 297,284 296,284 295,285 294,285 293,286 292,286 291,287 290,287 289,288 288,288 287,289 286,289 285,290 284,290 283,291 282,291 281,292 280,292 279,293 277,293 276,294 275,294 274,295 273,295 272,296 271,296 270,297 269,297 267,299 266,299 265,300 263,300 262,301 261,301 260,302 259,302 258,303 257,303 256,304 254,304 252,306 250,306 248,308 246,308 245,309 244,309 243,310 242,310 241,311 240,311 239,312 238,312 237,313 235,313 234,314 233,314 232,315 231,315 230,316 229,316 228,317 227,317 226,318 225,318 223,320 221,320 220,321 219,321 218,322 216,322 215,323 214,323 213,324 212,324 211,325 210,325 209,326 208,326 207,327 206,327 205,328 205,331 206,332 206,333 207,334 207,335 208,336 208,337 209,337 210,338 210,339 211,340 211,341 215,345 215,346 223,354 224,354 228,358 229,358 231,360 232,360 234,362 235,362 236,363 237,363 238,364 239,364 240,365 241,365 242,366 243,366 244,367 245,367 246,368 248,368 249,369 250,369 251,370 253,370 254,371 258,371 259,372 264,372 265,373 286,373 287,372 291,372 292,371 295,371 296,370 298,370 299,369 301,369 302,368 304,368 305,367 306,367 307,366 308,366 309,365 310,365 311,364 313,364 314,363 315,363 316,362 317,362 318,361 319,361 320,360 321,360 322,359 323,359 324,358 325,358 326,357 327,357 328,356 329,356 330,355 331,355 332,354 333,354 334,353 335,353 336,352 338,352 339,351 340,351 341,350 342,350 343,349 344,349 345,348 346,348 347,347 348,347 349,346 350,346 351,345 352,345 353,344 354,344 355,343 356,343 357,342 359,342 361,340 362,340 364,338 365,338 366,337 366,336 367,335 368,335 368,334 369,333 369,332 370,331 370,330 371,329 371,328 372,327 372,314 371,313 371,311 370,310 370,309 369,308 369,307 368,306 368,304 367,303 367,302 366,301 366,300 365,299 365,298 364,297 364,296 362,294 362,293 361,292 361,290 360,289 360,288 359,287 359,286 358,285 358,284 357,283 357,282 356,281 356,280 354,278 354,277 351,274 350,274 347,271 346,271 345,270 343,270 342,269 335,269" /><polygon fill="#4647C2" points="357,148 356,149 353,149 352,150 349,150 348,151 345,151 344,152 342,152 341,153 338,153 337,154 336,154 335,155 333,155 331,157 331,158 329,160 329,167 330,168 330,169 331,169 332,170 338,170 339,169 343,169 344,168 346,168 347,167 350,167 351,166 353,166 354,165 357,165 358,164 361,164 362,163 364,163 365,162 367,162 368,161 371,161 375,157 375,152 374,151 373,151 372,150 369,150 368,149 365,149 364,148" /><polygon fill="#4647C2" points="194,103 193,104 193,106 192,107 192,108 191,109 191,111 190,112 190,113 189,114 189,116 188,117 188,119 187,120 187,123 186,124 186,125 185,126 185,127 184,128 184,131 183,132 183,133 182,134 182,136 181,137 181,139 180,140 180,141 179,142 179,145 178,146 178,148 177,149 177,150 176,151 176,153 175,154 175,156 174,157 174,159 173,160 173,161 172,162 172,164 171,165 171,167 170,168 170,170 169,171 169,173 168,174 168,176 167,177 167,179 166,180 166,181 165,182 165,184 164,185 164,187 163,188 163,190 162,191 162,193 161,194 161,196 160,197 160,198 159,199 159,201 158,202 158,204 157,205 157,207 156,208 156,210 155,211 155,213 154,214 154,215 153,216 153,218 152,219 152,221 151,222 151,224 150,225 150,227 149,228 149,230 148,231 148,232 147,233 147,235 146,236 146,238 145,239 145,241 144,242 144,243 143,244 143,246 142,247 142,248 141,249 141,250 140,251 140,252 135,257 134,257 131,260 130,260 129,261 128,261 127,262 126,262 125,263 124,263 123,264 122,264 121,265 120,265 119,266 117,266 116,267 115,267 114,268 113,268 111,270 109,270 108,271 107,271 106,272 105,272 104,273 102,273 100,275 98,275 97,276 96,276 95,277 94,277 93,278 92,278 91,279 90,279 89,280 88,280 87,281 85,281 84,282 83,282 82,283 81,283 80,284 79,284 77,286 75,286 73,288 72,288 71,289 71,290 72,291 72,292 73,293 73,294 75,296 75,298 76,299 76,301 78,303 78,305 80,307 80,308 81,309 81,310 82,311 82,312 83,313 83,314 84,315 84,316 85,317 85,318 86,318 87,319 87,320 98,331 99,331 100,332 101,332 103,334 104,334 105,335 106,335 107,336 108,336 109,337 111,337 112,338 114,338 115,339 117,339 118,340 123,340 124,341 137,341 138,340 142,340 143,339 146,339 147,338 149,338 150,337 151,337 152,336 154,336 155,335 156,335 157,334 158,334 159,333 160,333 161,332 162,332 163,331 165,331 166,330 167,330 169,328 170,328 171,327 173,327 174,326 175,326 176,325 177,325 178,324 179,324 180,323 181,323 182,322 183,322 184,321 185,321 186,320 187,320 188,319 190,319 191,318 192,318 193,317 194,317 195,316 196,316 197,315 198,315 199,314 201,314 202,313 203,313 205,311 207,311 208,310 209,310 210,309 211,309 212,308 213,308 214,307 215,307 216,306 217,306 218,305 219,305 220,304 221,304 222,303 223,303 224,302 225,302 226,301 227,301 228,300 230,300 231,299 232,299 233,298 234,298 235,297 236,297 237,296 238,296 239,295 240,295 241,294 242,294 243,293 244,293 245,292 247,292 248,291 249,291 250,290 251,290 252,289 253,289 254,288 255,288 256,287 257,287 258,286 259,286 260,285 261,285 262,284 263,284 264,283 265,283 266,282 267,282 268,281 269,281 270,280 271,280 272,279 274,279 275,278 276,278 277,277 278,277 279,276 280,276 281,275 282,275 283,274 284,274 285,273 287,273 288,272 289,272 290,271 291,271 292,270 293,270 294,269 295,269 296,268 298,268 299,267 300,267 301,266 302,266 303,265 304,265 305,264 306,264 307,263 308,263 309,262 310,262 311,261 312,261 313,260 315,260 316,259 317,259 319,257 321,257 322,256 323,256 324,255 325,255 326,254 327,254 334,247 334,246 335,245 335,243 336,242 336,240 337,239 337,235 338,234 338,233 337,232 337,228 336,227 336,225 335,224 335,222 334,221 334,220 333,219 333,218 332,217 332,216 330,214 330,213 329,212 329,210 328,209 328,208 327,207 327,206 326,205 326,204 325,203 325,202 324,201 324,200 323,199 323,198 322,197 322,196 321,195 321,194 320,193 320,192 314,186 313,186 311,184 309,184 308,183 307,183 306,182 295,182 294,183 292,183 291,184 289,184 287,186 285,186 284,187 283,187 282,188 281,188 280,189 279,189 278,190 277,190 276,191 275,191 274,192 273,192 272,193 271,193 270,194 268,194 267,195 266,195 265,196 264,196 263,197 262,197 261,198 260,198 259,199 258,199 257,200 256,200 255,201 254,201 253,202 252,202 251,203 249,203 248,202 246,202 245,201 245,200 244,199 244,194 245,193 245,191 246,190 246,188 247,187 247,186 248,185 248,183 249,182 249,180 250,179 250,178 251,177 251,175 252,174 252,172 253,171 253,169 254,168 254,167 255,166 255,164 256,163 256,160 257,159 257,158 258,157 258,155 259,154 259,149 260,148 260,144 259,143 259,138 258,137 258,136 257,135 257,133 255,131 255,130 248,123 247,123 246,122 245,122 244,121 243,121 242,120 241,120 240,119 239,119 238,118 236,118 235,117 233,117 232,116 230,116 229,115 228,115 227,114 225,114 224,113 222,113 221,112 219,112 218,111 216,111 215,110 213,110 212,109 211,109 210,108 208,108 207,107 206,107 205,106 203,106 202,105 200,105 199,104 197,104 196,103" /><polygon fill="#4647C2" points="344,92 342,94 342,95 341,96 339,96 338,97 337,97 336,98 335,98 333,100 332,100 332,101 331,102 330,102 327,105 326,105 319,112 319,113 312,120 311,120 311,121 308,124 307,123 305,125 305,126 304,127 303,127 303,130 302,131 302,132 303,133 303,136 304,136 305,137 305,138 306,138 307,139 308,139 309,140 310,140 311,141 312,141 313,140 315,140 316,139 317,139 325,131 326,131 330,127 330,126 331,125 332,125 334,123 335,123 336,122 336,121 338,119 339,119 342,116 343,116 346,113 347,113 349,111 350,111 354,107 354,106 355,105 355,99 354,98 354,96 352,94 351,94 350,93 349,93 348,92" /><polygon fill="#4647C2" points="302,55 300,57 298,57 297,58 297,59 295,61 295,62 294,63 294,64 293,65 293,66 291,68 291,69 290,70 290,72 288,74 288,75 287,76 287,77 285,79 285,80 284,81 284,82 283,83 283,84 282,85 282,86 280,88 280,89 279,90 279,92 277,94 277,95 276,96 276,97 275,98 275,99 273,101 273,102 272,103 272,106 271,107 271,108 272,109 272,111 273,112 273,113 274,114 274,115 275,115 277,117 278,117 279,116 281,116 282,115 288,115 290,113 290,112 292,110 292,109 293,108 293,107 295,105 295,104 296,103 296,102 298,100 298,99 299,98 299,97 300,96 300,95 301,94 301,93 302,92 302,91 305,88 305,86 306,85 306,84 308,82 308,80 309,79 310,79 310,78 311,77 311,76 312,75 312,74 313,73 313,71 314,70 314,66 313,65 313,64 312,63 312,62 310,60 310,59 307,56 306,56 305,55" /></svg>