<?xml version="1.0" encoding="utf-8" ?>
<svg baseProfile="full" height="1024px" version="1.1" width="1024px" xmlns="http://www.w3.org/2000/svg" xmlns:ev="http://www.w3.org/2001/xml-events" xmlns:xlink="http://www.w3.org/1999/xlink"><defs /><path d="M 494,841 L 492,843 L 491,843 L 486,848 L 485,848 L 480,853 L 480,854 L 468,866 L 468,867 L 464,871 L 464,872 L 462,874 L 462,875 L 460,877 L 460,878 L 459,879 L 459,880 L 458,881 L 458,887 L 459,888 L 459,889 L 467,897 L 468,897 L 473,902 L 474,902 L 479,907 L 480,907 L 484,911 L 485,911 L 488,914 L 489,914 L 493,918 L 494,918 L 497,921 L 498,921 L 501,924 L 502,924 L 505,927 L 506,927 L 509,930 L 510,930 L 514,934 L 515,934 L 516,935 L 517,935 L 518,936 L 523,936 L 524,935 L 525,935 L 526,934 L 527,934 L 530,931 L 531,931 L 547,915 L 548,915 L 552,919 L 553,919 L 557,923 L 558,923 L 561,926 L 562,926 L 564,928 L 565,928 L 567,930 L 568,930 L 570,932 L 571,932 L 573,934 L 574,934 L 576,936 L 577,936 L 578,937 L 579,937 L 580,938 L 582,938 L 583,939 L 591,939 L 593,937 L 594,937 L 597,934 L 598,934 L 603,929 L 603,928 L 610,921 L 610,920 L 614,916 L 614,915 L 618,911 L 618,910 L 620,908 L 620,907 L 622,905 L 622,904 L 624,902 L 624,901 L 626,899 L 626,898 L 627,897 L 627,896 L 628,895 L 628,894 L 629,893 L 629,892 L 630,891 L 630,890 L 631,889 L 631,887 L 632,886 L 632,884 L 633,883 L 633,874 L 632,873 L 632,872 L 631,871 L 631,870 L 628,867 L 627,867 L 624,864 L 623,864 L 620,861 L 619,861 L 617,859 L 616,859 L 614,857 L 613,857 L 611,855 L 610,855 L 608,853 L 607,853 L 605,851 L 604,851 L 602,849 L 601,849 L 600,848 L 599,848 L 597,846 L 596,846 L 595,845 L 594,845 L 593,844 L 592,844 L 591,843 L 590,843 L 589,842 L 586,842 L 585,841 L 582,841 L 581,842 L 579,842 L 578,843 L 577,843 L 575,845 L 574,845 L 561,858 L 560,858 L 546,872 L 543,869 L 542,869 L 538,865 L 537,865 L 535,863 L 534,863 L 531,860 L 530,860 L 527,857 L 526,857 L 524,855 L 523,855 L 521,853 L 520,853 L 518,851 L 517,851 L 515,849 L 514,849 L 512,847 L 511,847 L 510,846 L 509,846 L 507,844 L 506,844 L 505,843 L 504,843 L 503,842 L 502,842 L 501,841 Z" fill="black" /><path d="M 717,557 L 716,558 L 709,558 L 708,559 L 704,559 L 703,560 L 701,560 L 700,561 L 698,561 L 697,562 L 695,562 L 694,563 L 693,563 L 692,564 L 690,564 L 689,565 L 688,565 L 687,566 L 686,566 L 685,567 L 684,567 L 683,568 L 682,568 L 680,570 L 679,570 L 678,571 L 677,571 L 675,573 L 674,573 L 673,574 L 672,574 L 670,576 L 669,576 L 668,577 L 667,577 L 665,579 L 664,579 L 663,580 L 662,580 L 661,581 L 660,581 L 658,583 L 657,583 L 656,584 L 655,584 L 653,586 L 652,586 L 651,587 L 650,587 L 649,588 L 648,588 L 646,590 L 645,590 L 644,591 L 643,591 L 641,593 L 640,593 L 639,594 L 638,594 L 637,595 L 636,595 L 634,597 L 633,597 L 632,598 L 631,598 L 630,599 L 629,599 L 627,601 L 626,601 L 625,602 L 624,602 L 623,603 L 622,603 L 620,605 L 619,605 L 618,606 L 617,606 L 616,607 L 615,607 L 614,608 L 613,608 L 611,610 L 610,610 L 609,611 L 608,611 L 607,612 L 606,612 L 604,614 L 603,614 L 602,615 L 601,615 L 600,616 L 599,616 L 598,617 L 597,617 L 596,618 L 595,618 L 593,620 L 592,620 L 591,621 L 590,621 L 589,622 L 588,622 L 587,623 L 586,623 L 584,625 L 583,625 L 582,626 L 581,626 L 580,627 L 579,627 L 578,628 L 577,628 L 576,629 L 575,629 L 573,631 L 572,631 L 571,632 L 570,632 L 569,633 L 568,633 L 567,634 L 566,634 L 565,635 L 564,635 L 563,636 L 562,636 L 561,637 L 560,637 L 558,639 L 557,639 L 556,640 L 555,640 L 554,641 L 553,641 L 552,642 L 551,642 L 550,643 L 549,643 L 548,644 L 547,644 L 546,645 L 545,645 L 544,646 L 543,646 L 541,648 L 540,648 L 539,649 L 538,649 L 537,650 L 536,650 L 535,651 L 534,651 L 533,652 L 532,652 L 531,653 L 530,653 L 529,654 L 528,654 L 527,655 L 526,655 L 525,656 L 524,656 L 522,658 L 521,658 L 520,659 L 519,659 L 518,660 L 517,660 L 516,661 L 515,661 L 514,662 L 513,662 L 512,663 L 511,663 L 510,664 L 509,664 L 508,665 L 507,665 L 506,666 L 505,666 L 504,667 L 503,667 L 502,668 L 501,668 L 500,669 L 499,669 L 498,670 L 497,670 L 496,671 L 495,671 L 494,672 L 493,672 L 492,673 L 491,673 L 490,674 L 489,674 L 488,675 L 487,675 L 486,676 L 485,676 L 484,677 L 483,677 L 482,678 L 481,678 L 480,679 L 479,679 L 478,680 L 477,680 L 476,681 L 475,681 L 474,682 L 473,682 L 472,683 L 471,683 L 470,684 L 469,684 L 468,685 L 467,685 L 466,686 L 465,686 L 464,687 L 463,687 L 462,688 L 461,688 L 460,689 L 459,689 L 458,690 L 457,690 L 456,691 L 455,691 L 454,692 L 453,692 L 452,693 L 451,693 L 450,694 L 449,694 L 448,695 L 447,695 L 446,696 L 445,696 L 444,697 L 443,697 L 442,698 L 441,698 L 440,699 L 439,699 L 438,700 L 437,700 L 436,701 L 435,701 L 434,702 L 432,702 L 431,703 L 430,703 L 429,704 L 428,704 L 427,705 L 426,705 L 425,706 L 424,706 L 423,707 L 422,707 L 421,708 L 420,708 L 419,709 L 418,709 L 417,710 L 416,710 L 415,711 L 414,711 L 413,712 L 412,712 L 411,713 L 410,713 L 409,714 L 408,714 L 407,715 L 406,715 L 405,716 L 404,716 L 404,717 L 403,718 L 403,719 L 402,720 L 402,723 L 403,724 L 403,725 L 404,726 L 404,727 L 405,728 L 405,729 L 406,730 L 406,731 L 407,732 L 407,733 L 409,735 L 409,736 L 411,738 L 411,739 L 413,741 L 413,742 L 415,744 L 415,745 L 418,748 L 418,749 L 421,752 L 421,753 L 426,758 L 426,759 L 447,780 L 448,780 L 453,785 L 454,785 L 457,788 L 458,788 L 460,790 L 461,790 L 463,792 L 464,792 L 466,794 L 467,794 L 469,796 L 470,796 L 472,798 L 473,798 L 474,799 L 475,799 L 476,800 L 477,800 L 478,801 L 479,801 L 481,803 L 482,803 L 483,804 L 485,804 L 487,806 L 489,806 L 490,807 L 491,807 L 492,808 L 493,808 L 494,809 L 496,809 L 497,810 L 498,810 L 499,811 L 501,811 L 502,812 L 504,812 L 505,813 L 507,813 L 508,814 L 510,814 L 511,815 L 513,815 L 514,816 L 516,816 L 517,817 L 521,817 L 522,818 L 526,818 L 527,819 L 532,819 L 533,820 L 540,820 L 541,821 L 554,821 L 555,822 L 568,822 L 569,821 L 581,821 L 582,820 L 588,820 L 589,819 L 594,819 L 595,818 L 600,818 L 601,817 L 604,817 L 605,816 L 608,816 L 609,815 L 612,815 L 613,814 L 616,814 L 617,813 L 619,813 L 620,812 L 622,812 L 623,811 L 625,811 L 626,810 L 628,810 L 629,809 L 631,809 L 632,808 L 634,808 L 635,807 L 637,807 L 638,806 L 640,806 L 641,805 L 642,805 L 643,804 L 645,804 L 646,803 L 647,803 L 648,802 L 650,802 L 651,801 L 652,801 L 653,800 L 655,800 L 656,799 L 657,799 L 658,798 L 659,798 L 660,797 L 661,797 L 662,796 L 663,796 L 664,795 L 666,795 L 667,794 L 668,794 L 669,793 L 670,793 L 671,792 L 672,792 L 673,791 L 674,791 L 675,790 L 676,790 L 677,789 L 678,789 L 679,788 L 680,788 L 681,787 L 682,787 L 683,786 L 684,786 L 685,785 L 686,785 L 687,784 L 688,784 L 690,782 L 691,782 L 692,781 L 693,781 L 694,780 L 695,780 L 696,779 L 697,779 L 698,778 L 699,778 L 700,777 L 701,777 L 702,776 L 703,776 L 705,774 L 706,774 L 707,773 L 708,773 L 709,772 L 710,772 L 711,771 L 712,771 L 713,770 L 714,770 L 716,768 L 717,768 L 718,767 L 719,767 L 720,766 L 721,766 L 722,765 L 723,765 L 725,763 L 726,763 L 727,762 L 728,762 L 729,761 L 730,761 L 731,760 L 732,760 L 734,758 L 735,758 L 736,757 L 737,757 L 738,756 L 739,756 L 741,754 L 742,754 L 743,753 L 744,753 L 745,752 L 746,752 L 748,750 L 749,750 L 750,749 L 751,749 L 752,748 L 753,748 L 755,746 L 756,746 L 757,745 L 758,745 L 759,744 L 760,744 L 762,742 L 763,742 L 765,740 L 766,740 L 768,738 L 769,738 L 771,736 L 772,736 L 776,732 L 777,732 L 788,721 L 788,720 L 791,717 L 791,716 L 794,713 L 794,712 L 795,711 L 795,710 L 797,708 L 797,707 L 798,706 L 798,704 L 799,703 L 799,702 L 800,701 L 800,699 L 801,698 L 801,696 L 802,695 L 802,691 L 803,690 L 803,670 L 802,669 L 802,665 L 801,664 L 801,661 L 800,660 L 800,657 L 799,656 L 799,654 L 798,653 L 798,650 L 797,649 L 797,647 L 796,646 L 796,645 L 795,644 L 795,642 L 794,641 L 794,640 L 793,639 L 793,637 L 792,636 L 792,635 L 791,634 L 791,632 L 790,631 L 790,630 L 789,629 L 789,628 L 788,627 L 788,626 L 787,625 L 787,624 L 786,623 L 786,622 L 785,621 L 785,619 L 784,618 L 784,617 L 783,616 L 783,615 L 782,614 L 782,613 L 781,612 L 781,611 L 780,610 L 780,609 L 779,608 L 779,607 L 778,606 L 778,605 L 777,604 L 777,603 L 776,602 L 776,601 L 775,600 L 775,599 L 774,598 L 774,597 L 772,595 L 772,594 L 771,593 L 771,592 L 769,590 L 769,589 L 768,588 L 768,587 L 766,585 L 766,584 L 764,582 L 764,581 L 761,578 L 761,577 L 750,566 L 749,566 L 747,564 L 746,564 L 745,563 L 744,563 L 743,562 L 742,562 L 741,561 L 739,561 L 738,560 L 736,560 L 735,559 L 732,559 L 731,558 L 724,558 L 723,557 Z" fill="black" /><path d="M 791,270 L 790,271 L 785,271 L 784,272 L 780,272 L 779,273 L 776,273 L 775,274 L 772,274 L 771,275 L 768,275 L 767,276 L 764,276 L 763,277 L 761,277 L 760,278 L 758,278 L 757,279 L 754,279 L 753,280 L 751,280 L 750,281 L 748,281 L 747,282 L 745,282 L 744,283 L 742,283 L 741,284 L 739,284 L 738,285 L 736,285 L 735,286 L 733,286 L 732,287 L 730,287 L 729,288 L 727,288 L 726,289 L 723,289 L 722,290 L 720,290 L 719,291 L 717,291 L 716,292 L 714,292 L 713,293 L 711,293 L 710,294 L 708,294 L 707,295 L 706,295 L 705,296 L 703,296 L 702,297 L 701,297 L 700,298 L 699,298 L 698,299 L 697,299 L 692,304 L 692,306 L 691,307 L 691,316 L 692,317 L 692,319 L 693,320 L 693,322 L 695,324 L 695,325 L 701,331 L 702,331 L 703,332 L 705,332 L 706,333 L 715,333 L 716,332 L 722,332 L 723,331 L 727,331 L 728,330 L 733,330 L 734,329 L 738,329 L 739,328 L 743,328 L 744,327 L 748,327 L 749,326 L 753,326 L 754,325 L 758,325 L 759,324 L 763,324 L 764,323 L 767,323 L 768,322 L 772,322 L 773,321 L 776,321 L 777,320 L 781,320 L 782,319 L 784,319 L 785,318 L 788,318 L 789,317 L 792,317 L 793,316 L 796,316 L 797,315 L 799,315 L 800,314 L 802,314 L 803,313 L 804,313 L 805,312 L 807,312 L 808,311 L 809,311 L 810,310 L 811,310 L 814,307 L 815,307 L 816,306 L 816,305 L 818,303 L 818,302 L 819,301 L 819,300 L 820,299 L 820,297 L 821,296 L 821,287 L 820,286 L 820,283 L 819,282 L 819,281 L 818,280 L 818,279 L 817,278 L 817,277 L 814,274 L 813,274 L 812,273 L 811,273 L 810,272 L 809,272 L 808,271 L 806,271 L 805,270 Z" fill="black" /><path d="M 367,147 L 364,150 L 364,152 L 363,153 L 363,155 L 362,156 L 362,158 L 361,159 L 361,161 L 360,162 L 360,164 L 359,165 L 359,166 L 358,167 L 358,169 L 357,170 L 357,172 L 356,173 L 356,175 L 355,176 L 355,178 L 354,179 L 354,181 L 353,182 L 353,184 L 352,185 L 352,187 L 351,188 L 351,190 L 350,191 L 350,192 L 349,193 L 349,195 L 348,196 L 348,198 L 347,199 L 347,201 L 346,202 L 346,204 L 345,205 L 345,207 L 344,208 L 344,210 L 343,211 L 343,213 L 342,214 L 342,216 L 341,217 L 341,219 L 340,220 L 340,222 L 339,223 L 339,225 L 338,226 L 338,227 L 337,228 L 337,230 L 336,231 L 336,233 L 335,234 L 335,236 L 334,237 L 334,239 L 333,240 L 333,242 L 332,243 L 332,245 L 331,246 L 331,248 L 330,249 L 330,251 L 329,252 L 329,254 L 328,255 L 328,257 L 327,258 L 327,260 L 326,261 L 326,263 L 325,264 L 325,266 L 324,267 L 324,269 L 323,270 L 323,272 L 322,273 L 322,275 L 321,276 L 321,278 L 320,279 L 320,281 L 319,282 L 319,284 L 318,285 L 318,287 L 317,288 L 317,290 L 316,291 L 316,293 L 315,294 L 315,296 L 314,297 L 314,299 L 313,300 L 313,302 L 312,303 L 312,305 L 311,306 L 311,308 L 310,309 L 310,311 L 309,312 L 309,314 L 308,315 L 308,317 L 307,318 L 307,320 L 306,321 L 306,323 L 305,324 L 305,326 L 304,327 L 304,329 L 303,330 L 303,332 L 302,333 L 302,335 L 301,336 L 301,338 L 300,339 L 300,341 L 299,342 L 299,344 L 298,345 L 298,347 L 297,348 L 297,350 L 296,351 L 296,353 L 295,354 L 295,356 L 294,357 L 294,359 L 293,360 L 293,362 L 292,363 L 292,365 L 291,366 L 291,368 L 290,369 L 290,371 L 289,372 L 289,374 L 288,375 L 288,377 L 287,378 L 287,380 L 286,381 L 286,383 L 285,384 L 285,386 L 284,387 L 284,389 L 283,390 L 283,392 L 282,393 L 282,394 L 281,395 L 281,397 L 280,398 L 280,400 L 279,401 L 279,403 L 278,404 L 278,406 L 277,407 L 277,409 L 276,410 L 276,412 L 275,413 L 275,415 L 274,416 L 274,418 L 273,419 L 273,421 L 272,422 L 272,423 L 271,424 L 271,426 L 270,427 L 270,429 L 269,430 L 269,432 L 268,433 L 268,435 L 267,436 L 267,438 L 266,439 L 266,441 L 265,442 L 265,444 L 264,445 L 264,447 L 263,448 L 263,450 L 262,451 L 262,453 L 261,454 L 261,455 L 260,456 L 260,458 L 259,459 L 259,461 L 258,462 L 258,464 L 257,465 L 257,467 L 256,468 L 256,470 L 255,471 L 255,473 L 254,474 L 254,476 L 253,477 L 253,479 L 252,480 L 252,482 L 251,483 L 251,485 L 250,486 L 250,488 L 249,489 L 249,491 L 248,492 L 248,494 L 247,495 L 247,497 L 246,498 L 246,499 L 245,500 L 245,502 L 244,503 L 244,504 L 243,505 L 243,506 L 242,507 L 242,508 L 241,509 L 241,510 L 240,511 L 240,512 L 237,515 L 237,516 L 231,522 L 230,522 L 227,525 L 226,525 L 224,527 L 223,527 L 222,528 L 221,528 L 220,529 L 219,529 L 218,530 L 217,530 L 216,531 L 215,531 L 214,532 L 213,532 L 212,533 L 211,533 L 210,534 L 209,534 L 208,535 L 207,535 L 206,536 L 205,536 L 204,537 L 203,537 L 201,539 L 200,539 L 199,540 L 198,540 L 197,541 L 196,541 L 195,542 L 194,542 L 193,543 L 192,543 L 191,544 L 190,544 L 189,545 L 188,545 L 187,546 L 186,546 L 185,547 L 184,547 L 183,548 L 182,548 L 181,549 L 180,549 L 179,550 L 178,550 L 177,551 L 176,551 L 175,552 L 174,552 L 173,553 L 172,553 L 171,554 L 170,554 L 169,555 L 168,555 L 167,556 L 166,556 L 165,557 L 164,557 L 163,558 L 162,558 L 161,559 L 160,559 L 158,561 L 157,561 L 156,562 L 155,562 L 154,563 L 153,563 L 152,564 L 151,564 L 150,565 L 149,565 L 148,566 L 147,566 L 146,567 L 145,567 L 144,568 L 143,568 L 142,569 L 141,569 L 140,570 L 139,570 L 138,571 L 137,571 L 136,572 L 135,572 L 134,573 L 133,573 L 132,574 L 131,574 L 130,575 L 129,575 L 128,576 L 127,576 L 126,577 L 125,577 L 124,578 L 123,578 L 122,579 L 121,579 L 120,580 L 119,580 L 118,581 L 117,581 L 116,582 L 115,582 L 114,583 L 113,583 L 112,584 L 111,584 L 110,585 L 109,585 L 108,586 L 107,586 L 106,587 L 105,587 L 103,589 L 102,589 L 101,590 L 100,590 L 99,591 L 98,591 L 97,592 L 96,592 L 93,595 L 93,601 L 94,602 L 94,604 L 95,605 L 95,607 L 96,608 L 96,610 L 97,611 L 97,613 L 98,614 L 98,616 L 99,617 L 99,619 L 100,620 L 100,622 L 101,623 L 101,624 L 102,625 L 102,627 L 103,628 L 103,629 L 104,630 L 104,631 L 105,632 L 105,634 L 106,635 L 106,636 L 107,637 L 107,638 L 108,639 L 108,640 L 109,641 L 109,642 L 110,643 L 110,644 L 111,645 L 111,646 L 112,647 L 112,648 L 113,649 L 113,650 L 114,651 L 114,652 L 116,654 L 116,655 L 117,656 L 117,657 L 119,659 L 119,660 L 121,662 L 121,663 L 122,664 L 122,665 L 125,668 L 125,669 L 128,672 L 128,673 L 132,677 L 132,678 L 151,697 L 152,697 L 156,701 L 157,701 L 160,704 L 161,704 L 164,707 L 165,707 L 167,709 L 168,709 L 170,711 L 171,711 L 172,712 L 173,712 L 175,714 L 176,714 L 177,715 L 178,715 L 179,716 L 180,716 L 181,717 L 182,717 L 183,718 L 184,718 L 185,719 L 186,719 L 187,720 L 188,720 L 189,721 L 190,721 L 191,722 L 193,722 L 194,723 L 195,723 L 196,724 L 198,724 L 199,725 L 201,725 L 202,726 L 204,726 L 205,727 L 207,727 L 208,728 L 211,728 L 212,729 L 216,729 L 217,730 L 221,730 L 222,731 L 230,731 L 231,732 L 252,732 L 253,731 L 260,731 L 261,730 L 266,730 L 267,729 L 272,729 L 273,728 L 276,728 L 277,727 L 280,727 L 281,726 L 283,726 L 284,725 L 286,725 L 287,724 L 289,724 L 290,723 L 292,723 L 293,722 L 295,722 L 296,721 L 298,721 L 299,720 L 300,720 L 301,719 L 302,719 L 303,718 L 304,718 L 305,717 L 306,717 L 307,716 L 309,716 L 310,715 L 311,715 L 312,714 L 313,714 L 315,712 L 316,712 L 317,711 L 318,711 L 319,710 L 320,710 L 321,709 L 322,709 L 323,708 L 324,708 L 325,707 L 326,707 L 327,706 L 328,706 L 329,705 L 330,705 L 331,704 L 332,704 L 333,703 L 334,703 L 335,702 L 336,702 L 337,701 L 338,701 L 339,700 L 340,700 L 341,699 L 342,699 L 343,698 L 344,698 L 345,697 L 346,697 L 347,696 L 348,696 L 349,695 L 350,695 L 351,694 L 352,694 L 353,693 L 354,693 L 355,692 L 356,692 L 357,691 L 358,691 L 360,689 L 361,689 L 362,688 L 363,688 L 364,687 L 365,687 L 366,686 L 367,686 L 368,685 L 369,685 L 370,684 L 371,684 L 372,683 L 373,683 L 374,682 L 375,682 L 376,681 L 377,681 L 378,680 L 379,680 L 380,679 L 381,679 L 382,678 L 383,678 L 385,676 L 386,676 L 387,675 L 388,675 L 389,674 L 390,674 L 391,673 L 392,673 L 393,672 L 394,672 L 395,671 L 396,671 L 397,670 L 398,670 L 399,669 L 400,669 L 401,668 L 402,668 L 403,667 L 404,667 L 405,666 L 406,666 L 408,664 L 409,664 L 410,663 L 411,663 L 412,662 L 413,662 L 414,661 L 415,661 L 416,660 L 417,660 L 418,659 L 419,659 L 420,658 L 421,658 L 422,657 L 423,657 L 424,656 L 425,656 L 426,655 L 427,655 L 428,654 L 429,654 L 431,652 L 432,652 L 433,651 L 434,651 L 435,650 L 436,650 L 437,649 L 438,649 L 439,648 L 440,648 L 441,647 L 442,647 L 443,646 L 444,646 L 445,645 L 446,645 L 447,644 L 448,644 L 449,643 L 450,643 L 452,641 L 453,641 L 454,640 L 455,640 L 456,639 L 457,639 L 458,638 L 459,638 L 460,637 L 461,637 L 462,636 L 463,636 L 464,635 L 465,635 L 466,634 L 467,634 L 468,633 L 469,633 L 470,632 L 471,632 L 473,630 L 474,630 L 475,629 L 476,629 L 477,628 L 478,628 L 479,627 L 480,627 L 481,626 L 482,626 L 483,625 L 484,625 L 485,624 L 486,624 L 487,623 L 488,623 L 489,622 L 490,622 L 491,621 L 492,621 L 493,620 L 494,620 L 496,618 L 497,618 L 498,617 L 499,617 L 500,616 L 501,616 L 502,615 L 503,615 L 504,614 L 505,614 L 506,613 L 507,613 L 508,612 L 509,612 L 510,611 L 511,611 L 512,610 L 513,610 L 515,608 L 516,608 L 517,607 L 518,607 L 519,606 L 520,606 L 521,605 L 522,605 L 523,604 L 524,604 L 525,603 L 526,603 L 527,602 L 528,602 L 529,601 L 530,601 L 531,600 L 532,600 L 534,598 L 535,598 L 536,597 L 537,597 L 538,596 L 539,596 L 540,595 L 541,595 L 542,594 L 543,594 L 544,593 L 545,593 L 546,592 L 547,592 L 548,591 L 549,591 L 550,590 L 551,590 L 553,588 L 554,588 L 555,587 L 556,587 L 557,586 L 558,586 L 559,585 L 560,585 L 561,584 L 562,584 L 563,583 L 564,583 L 565,582 L 566,582 L 567,581 L 568,581 L 569,580 L 570,580 L 571,579 L 572,579 L 573,578 L 574,578 L 576,576 L 577,576 L 578,575 L 579,575 L 580,574 L 581,574 L 582,573 L 583,573 L 584,572 L 585,572 L 586,571 L 587,571 L 588,570 L 589,570 L 590,569 L 591,569 L 592,568 L 593,568 L 595,566 L 596,566 L 597,565 L 598,565 L 599,564 L 600,564 L 601,563 L 602,563 L 603,562 L 604,562 L 605,561 L 606,561 L 607,560 L 608,560 L 609,559 L 610,559 L 611,558 L 612,558 L 613,557 L 614,557 L 616,555 L 617,555 L 618,554 L 619,554 L 620,553 L 621,553 L 622,552 L 623,552 L 624,551 L 625,551 L 626,550 L 627,550 L 628,549 L 629,549 L 630,548 L 631,548 L 632,547 L 633,547 L 634,546 L 635,546 L 637,544 L 638,544 L 639,543 L 640,543 L 641,542 L 642,542 L 643,541 L 644,541 L 645,540 L 646,540 L 647,539 L 648,539 L 649,538 L 650,538 L 651,537 L 652,537 L 653,536 L 654,536 L 655,535 L 656,535 L 658,533 L 659,533 L 660,532 L 661,532 L 662,531 L 663,531 L 664,530 L 665,530 L 666,529 L 667,529 L 668,528 L 669,528 L 670,527 L 671,527 L 672,526 L 673,526 L 675,524 L 676,524 L 677,523 L 678,523 L 679,522 L 680,522 L 681,521 L 682,521 L 683,520 L 684,520 L 686,518 L 687,518 L 689,516 L 690,516 L 694,512 L 695,512 L 700,507 L 700,506 L 705,501 L 705,500 L 707,498 L 707,497 L 708,496 L 708,495 L 709,494 L 709,493 L 710,492 L 710,491 L 711,490 L 711,488 L 712,487 L 712,485 L 713,484 L 713,482 L 714,481 L 714,476 L 715,475 L 715,467 L 714,466 L 714,461 L 713,460 L 713,457 L 712,456 L 712,454 L 711,453 L 711,451 L 710,450 L 710,448 L 709,447 L 709,446 L 708,445 L 708,443 L 707,442 L 707,441 L 706,440 L 706,438 L 705,437 L 705,436 L 704,435 L 704,434 L 703,433 L 703,431 L 702,430 L 702,429 L 701,428 L 701,427 L 700,426 L 700,424 L 699,423 L 699,422 L 698,421 L 698,420 L 697,419 L 697,418 L 696,417 L 696,416 L 695,415 L 695,413 L 694,412 L 694,411 L 693,410 L 693,409 L 692,408 L 692,407 L 691,406 L 691,405 L 690,404 L 690,403 L 689,402 L 689,401 L 688,400 L 688,399 L 687,398 L 687,397 L 686,396 L 686,395 L 685,394 L 685,393 L 684,392 L 684,391 L 683,390 L 683,389 L 682,388 L 682,387 L 681,386 L 681,385 L 680,384 L 680,383 L 679,382 L 679,381 L 678,380 L 678,379 L 677,378 L 677,377 L 675,375 L 675,374 L 674,373 L 674,372 L 673,371 L 673,370 L 671,368 L 671,367 L 669,365 L 669,364 L 667,362 L 667,361 L 657,351 L 656,351 L 654,349 L 653,349 L 651,347 L 650,347 L 649,346 L 648,346 L 647,345 L 645,345 L 644,344 L 643,344 L 642,343 L 639,343 L 638,342 L 634,342 L 633,341 L 618,341 L 617,342 L 613,342 L 612,343 L 610,343 L 609,344 L 607,344 L 606,345 L 604,345 L 603,346 L 601,346 L 600,347 L 599,347 L 598,348 L 597,348 L 596,349 L 595,349 L 594,350 L 593,350 L 592,351 L 591,351 L 589,353 L 588,353 L 587,354 L 586,354 L 585,355 L 584,355 L 582,357 L 581,357 L 580,358 L 579,358 L 578,359 L 577,359 L 575,361 L 574,361 L 573,362 L 572,362 L 571,363 L 570,363 L 568,365 L 567,365 L 566,366 L 565,366 L 564,367 L 563,367 L 561,369 L 560,369 L 559,370 L 558,370 L 557,371 L 556,371 L 554,373 L 553,373 L 552,374 L 551,374 L 550,375 L 549,375 L 547,377 L 546,377 L 545,378 L 544,378 L 542,380 L 541,380 L 540,381 L 539,381 L 538,382 L 537,382 L 536,383 L 535,383 L 533,385 L 532,385 L 531,386 L 530,386 L 528,388 L 527,388 L 526,389 L 525,389 L 524,390 L 523,390 L 521,392 L 520,392 L 519,393 L 518,393 L 517,394 L 516,394 L 515,395 L 514,395 L 513,396 L 512,396 L 510,398 L 508,398 L 507,399 L 501,399 L 500,398 L 499,398 L 498,397 L 497,397 L 494,394 L 494,393 L 493,392 L 493,390 L 492,389 L 492,380 L 493,379 L 493,375 L 494,374 L 494,371 L 495,370 L 495,367 L 496,366 L 496,363 L 497,362 L 497,359 L 498,358 L 498,355 L 499,354 L 499,351 L 500,350 L 500,347 L 501,346 L 501,344 L 502,343 L 502,340 L 503,339 L 503,336 L 504,335 L 504,333 L 505,332 L 505,329 L 506,328 L 506,326 L 507,325 L 507,322 L 508,321 L 508,319 L 509,318 L 509,316 L 510,315 L 510,312 L 511,311 L 511,309 L 512,308 L 512,305 L 513,304 L 513,302 L 514,301 L 514,298 L 515,297 L 515,295 L 516,294 L 516,292 L 517,291 L 517,288 L 518,287 L 518,285 L 519,284 L 519,281 L 520,280 L 520,278 L 521,277 L 521,274 L 522,273 L 522,270 L 523,269 L 523,265 L 524,264 L 524,246 L 523,245 L 523,241 L 522,240 L 522,237 L 521,236 L 521,234 L 520,233 L 520,231 L 519,230 L 519,228 L 518,227 L 518,226 L 517,225 L 517,224 L 516,223 L 516,222 L 515,221 L 515,220 L 514,219 L 514,218 L 513,217 L 513,216 L 511,214 L 511,213 L 508,210 L 508,209 L 498,199 L 497,199 L 494,196 L 493,196 L 491,194 L 490,194 L 488,192 L 487,192 L 486,191 L 485,191 L 484,190 L 482,190 L 481,189 L 480,189 L 479,188 L 478,188 L 477,187 L 475,187 L 474,186 L 472,186 L 471,185 L 470,185 L 469,184 L 467,184 L 466,183 L 465,183 L 464,182 L 462,182 L 461,181 L 459,181 L 458,180 L 457,180 L 456,179 L 454,179 L 453,178 L 452,178 L 451,177 L 449,177 L 448,176 L 447,176 L 446,175 L 444,175 L 443,174 L 441,174 L 440,173 L 439,173 L 438,172 L 436,172 L 435,171 L 434,171 L 433,170 L 431,170 L 430,169 L 429,169 L 428,168 L 426,168 L 425,167 L 423,167 L 422,166 L 421,166 L 420,165 L 418,165 L 417,164 L 416,164 L 415,163 L 413,163 L 412,162 L 410,162 L 409,161 L 408,161 L 407,160 L 405,160 L 404,159 L 403,159 L 402,158 L 400,158 L 399,157 L 398,157 L 397,156 L 395,156 L 394,155 L 392,155 L 391,154 L 390,154 L 389,153 L 387,153 L 386,152 L 385,152 L 384,151 L 382,151 L 381,150 L 380,150 L 379,149 L 377,149 L 376,148 L 374,148 L 373,147 Z" fill="black" /><path d="M 741,129 L 740,130 L 736,130 L 735,131 L 733,131 L 732,132 L 731,132 L 729,134 L 728,134 L 725,137 L 724,137 L 717,144 L 716,144 L 660,200 L 660,201 L 647,214 L 647,215 L 643,219 L 643,220 L 642,221 L 642,222 L 641,223 L 641,224 L 640,225 L 640,234 L 641,235 L 641,237 L 642,238 L 642,239 L 643,240 L 643,241 L 651,249 L 652,249 L 653,250 L 654,250 L 655,251 L 657,251 L 658,252 L 664,252 L 665,251 L 667,251 L 668,250 L 669,250 L 670,249 L 671,249 L 673,247 L 674,247 L 677,244 L 678,244 L 681,241 L 682,241 L 687,236 L 688,236 L 692,232 L 693,232 L 698,227 L 699,227 L 704,222 L 705,222 L 711,216 L 712,216 L 717,211 L 718,211 L 725,204 L 726,204 L 734,196 L 735,196 L 744,187 L 745,187 L 757,175 L 757,174 L 759,172 L 759,171 L 761,169 L 761,168 L 762,167 L 762,166 L 763,165 L 763,163 L 764,162 L 764,148 L 763,147 L 763,145 L 762,144 L 762,142 L 761,141 L 761,140 L 760,139 L 760,138 L 755,133 L 754,133 L 753,132 L 752,132 L 751,131 L 749,131 L 748,130 L 743,130 L 742,129 Z" fill="black" /><path d="M 632,34 L 631,35 L 630,35 L 629,36 L 628,36 L 625,39 L 624,39 L 622,41 L 622,42 L 617,47 L 617,48 L 615,50 L 615,51 L 613,53 L 613,54 L 611,56 L 611,57 L 610,58 L 610,59 L 609,60 L 609,61 L 608,62 L 608,63 L 607,64 L 607,65 L 606,66 L 606,67 L 605,68 L 605,69 L 603,71 L 603,72 L 602,73 L 602,74 L 601,75 L 601,76 L 600,77 L 600,78 L 599,79 L 599,80 L 598,81 L 598,82 L 597,83 L 597,84 L 596,85 L 596,86 L 595,87 L 595,88 L 594,89 L 594,90 L 593,91 L 593,92 L 592,93 L 592,94 L 591,95 L 591,96 L 590,97 L 590,98 L 589,99 L 589,100 L 588,101 L 588,102 L 587,103 L 587,104 L 586,105 L 586,106 L 584,108 L 584,109 L 583,110 L 583,111 L 582,112 L 582,113 L 581,114 L 581,115 L 580,116 L 580,117 L 579,118 L 579,119 L 578,120 L 578,121 L 577,122 L 577,123 L 576,124 L 576,125 L 575,126 L 575,127 L 574,128 L 574,129 L 573,130 L 573,131 L 572,132 L 572,133 L 571,134 L 571,135 L 570,136 L 570,137 L 569,138 L 569,140 L 568,141 L 568,142 L 567,143 L 567,144 L 566,145 L 566,147 L 565,148 L 565,151 L 564,152 L 564,165 L 565,166 L 565,169 L 566,170 L 566,172 L 567,173 L 567,174 L 571,178 L 572,178 L 574,180 L 575,180 L 576,181 L 578,181 L 579,182 L 582,182 L 583,183 L 589,183 L 590,182 L 592,182 L 593,181 L 594,181 L 601,174 L 601,173 L 603,171 L 603,170 L 606,167 L 606,166 L 608,164 L 608,163 L 610,161 L 610,160 L 612,158 L 612,157 L 614,155 L 614,154 L 615,153 L 615,152 L 617,150 L 617,149 L 618,148 L 618,147 L 620,145 L 620,144 L 621,143 L 621,142 L 623,140 L 623,139 L 624,138 L 624,137 L 626,135 L 626,134 L 627,133 L 627,132 L 628,131 L 628,130 L 630,128 L 630,127 L 631,126 L 631,125 L 633,123 L 633,122 L 634,121 L 634,120 L 635,119 L 635,118 L 637,116 L 637,115 L 638,114 L 638,113 L 639,112 L 639,111 L 641,109 L 641,108 L 642,107 L 642,106 L 643,105 L 643,104 L 644,103 L 644,102 L 646,100 L 646,99 L 647,98 L 647,97 L 648,96 L 648,95 L 649,94 L 649,93 L 651,91 L 651,90 L 652,89 L 652,88 L 653,87 L 653,86 L 654,85 L 654,84 L 655,83 L 655,82 L 656,81 L 656,80 L 657,79 L 657,78 L 658,77 L 658,76 L 659,75 L 659,73 L 660,72 L 660,71 L 661,70 L 661,67 L 662,66 L 662,56 L 661,55 L 661,53 L 660,52 L 660,50 L 659,49 L 659,48 L 657,46 L 657,45 L 651,39 L 650,39 L 648,37 L 647,37 L 646,36 L 645,36 L 644,35 L 642,35 L 641,34 Z" fill="black" /></svg>