<svg width="25" height="25" viewBox="0 0 25 25" fill="none" xmlns="http://www.w3.org/2000/svg">
<path fill-rule="evenodd" clip-rule="evenodd" d="M12.7604 2.97848C12.5952 2.90561 12.4043 2.90561 12.2391 2.97848C11.8234 3.16186 11.34 3.59076 10.9355 4.15639C10.5311 4.72187 10.2824 5.31633 10.2364 5.74989C10.2145 5.95615 10.2285 6.20051 10.265 6.50504C10.2768 6.60367 10.2933 6.72349 10.3109 6.85153C10.3396 7.06047 10.3714 7.29132 10.3908 7.4878C10.4583 8.16881 10.4642 9.06032 9.84468 9.80836C9.56983 10.1402 9.1867 10.3726 8.71747 10.6571C8.68816 10.6748 8.65852 10.6928 8.62854 10.711L5.30707 12.7328C4.86022 13.0048 4.62035 13.243 4.47873 13.4909C4.33906 13.7353 4.25178 14.0648 4.25003 14.598L10.0598 13.2688C10.2678 13.2213 10.4862 13.2645 10.6604 13.3878C10.8346 13.5111 10.9479 13.7028 10.9722 13.9148L11.2337 16.2036C11.2388 16.2483 11.2439 16.2925 11.249 16.3362C11.3297 17.0336 11.3974 17.6187 11.1992 18.1682C10.9758 18.7875 10.5116 19.2933 10.0996 19.683C9.89414 19.8773 9.67973 20.0622 9.4869 20.2286L9.46657 20.2461C9.26231 20.4223 9.08675 20.5746 8.93911 20.7181C8.91833 20.7383 8.86699 20.8006 8.80788 20.9105C8.7515 21.0154 8.70265 21.1367 8.67163 21.2557C8.66563 21.2787 8.66054 21.3007 8.65627 21.3216C8.68928 21.3078 8.72678 21.2923 8.76397 21.2779L11.5526 20.1933C11.5745 20.1847 11.5966 20.1761 11.6189 20.1673C11.8829 20.0637 12.1785 19.9477 12.4997 19.9477C12.821 19.9477 13.1166 20.0637 13.3806 20.1673C13.4029 20.1761 13.425 20.1847 13.4469 20.1933L16.2355 21.2779C16.2727 21.2923 16.3102 21.3078 16.3432 21.3216C16.339 21.3007 16.3339 21.2787 16.3279 21.2557C16.2969 21.1367 16.248 21.0154 16.1916 20.9105C16.1325 20.8006 16.0812 20.7383 16.0604 20.7181C15.9128 20.5746 15.7372 20.4223 15.5329 20.2461L15.5128 20.2287C15.3199 20.0623 15.1054 19.8773 14.8999 19.683C14.4878 19.2933 14.0237 18.7875 13.8003 18.1682C13.6021 17.6187 13.6698 17.0336 13.7505 16.3362C13.7556 16.2924 13.7607 16.2483 13.7658 16.2036L14.0273 13.9148C14.0516 13.7028 14.1649 13.5111 14.3391 13.3878C14.5133 13.2645 14.7317 13.2213 14.9397 13.2688L20.7497 14.5981C20.7481 14.0649 20.6609 13.7353 20.5212 13.4909C20.3796 13.243 20.1397 13.0047 19.6928 12.7327L16.3714 10.7113C16.3413 10.693 16.3115 10.6749 16.282 10.6571C15.8128 10.3726 15.4297 10.1402 15.1548 9.80836C14.5353 9.06032 14.5412 8.16881 14.6087 7.4878C14.6281 7.29132 14.6599 7.06048 14.6886 6.85154C14.7062 6.72349 14.7226 6.60368 14.7345 6.50504C14.771 6.20051 14.785 5.95615 14.7631 5.74989C14.7171 5.31633 14.4684 4.72187 14.064 4.15639C13.6595 3.59076 13.1761 3.16186 12.7604 2.97848ZM11.6337 1.60607C12.1845 1.36308 12.815 1.36308 13.3658 1.60607C14.1133 1.93582 14.7886 2.59105 15.2841 3.28382C15.7796 3.97672 16.1723 4.81489 16.2547 5.59149C16.2949 5.96977 16.2639 6.34943 16.2238 6.68353C16.2042 6.84684 16.1848 6.98562 16.1664 7.11679C16.1422 7.29008 16.1198 7.45006 16.1014 7.63569C16.0414 8.24072 16.097 8.59432 16.3101 8.85162C16.4028 8.96351 16.5457 9.06199 17.1504 9.42946L20.4726 11.4513C21.0423 11.7981 21.5109 12.1993 21.8237 12.7468C22.1371 13.2955 22.2498 13.9133 22.2498 14.6133C22.2498 15.0164 22.168 15.546 21.7245 15.8784C21.2952 16.2001 20.778 16.1433 20.43 16.0637L15.4224 14.918L15.2561 16.3739C15.1529 17.2772 15.1477 17.4829 15.2113 17.6592C15.309 17.93 15.5507 18.2339 15.9306 18.5931C16.1107 18.7635 16.3024 18.9289 16.5025 19.1015L16.5128 19.1104C16.7103 19.2808 16.9207 19.4625 17.1061 19.6427C17.412 19.9401 17.6603 20.4204 17.7794 20.8773C17.8897 21.3007 17.9643 22.0088 17.4916 22.5359C17.1071 22.9647 16.6066 22.954 16.3053 22.8905C16.0929 22.8458 15.8465 22.7412 15.7381 22.6952C15.717 22.6862 15.7012 22.6795 15.6918 22.6759L12.9031 21.5912C12.7267 21.5226 12.6306 21.4857 12.5572 21.4631C12.525 21.4532 12.5075 21.4494 12.4997 21.4481C12.492 21.4494 12.4745 21.4532 12.4423 21.4631C12.3688 21.4857 12.2728 21.5226 12.0964 21.5912L9.30769 22.6759C9.29831 22.6795 9.28246 22.6862 9.2614 22.6952C9.153 22.7412 8.9066 22.8458 8.69416 22.8905C8.39293 22.954 7.89242 22.9647 7.50788 22.5359C7.03519 22.0088 7.10978 21.3007 7.22013 20.8773C7.33922 20.4204 7.58753 19.9401 7.89343 19.6427C8.07876 19.4625 8.28921 19.2808 8.48672 19.1104L8.49706 19.1015C8.69708 18.9289 8.88879 18.7635 9.06894 18.5931C9.44884 18.2339 9.69048 17.93 9.7882 17.6592C9.85178 17.4829 9.84664 17.2773 9.74341 16.3739L9.57705 14.918L4.56985 16.0636C4.22178 16.1433 3.70441 16.2001 3.27502 15.8783C2.83145 15.5457 2.74989 15.0158 2.75 14.6127C2.75019 13.9128 2.86294 13.2952 3.17633 12.7467C3.48908 12.1994 3.9576 11.7982 4.52716 11.4515L7.84863 9.42974C8.4533 9.06227 8.59675 8.96351 8.6894 8.85162C8.90249 8.59432 8.95807 8.24072 8.89812 7.63568C8.87973 7.45006 8.85733 7.29008 8.83306 7.11679C8.81469 6.98562 8.79526 6.84684 8.77569 6.68353C8.73565 6.34943 8.7046 5.96977 8.74477 5.59149C8.82724 4.81489 9.21987 3.97672 9.71541 3.28382C10.2108 2.59105 10.8862 1.93582 11.6337 1.60607ZM12.5047 21.4474L12.5025 21.4476L12.5047 21.4474ZM12.497 21.4476L12.4948 21.4474L12.497 21.4476Z" fill="#0C254B"/>
</svg>
