<svg width="16" height="16" viewBox="0 0 16 16" fill="none" xmlns="http://www.w3.org/2000/svg">
<path fill-rule="evenodd" clip-rule="evenodd" d="M7.99916 1.28125C6.94836 1.28125 6.09409 1.63621 5.34901 2.02222C5.12386 2.13886 4.91471 2.25424 4.71484 2.36449C4.22581 2.63426 3.79235 2.87338 3.31637 3.02524C3.03682 3.11444 2.78917 3.19344 2.6136 3.26225C2.44833 3.32701 2.25193 3.41575 2.11258 3.57062C1.9874 3.70974 1.92309 3.86592 1.88046 4.01531C1.84175 4.15092 1.80866 4.33452 1.77692 4.51066C1.00321 8.80171 2.69508 12.8669 6.82661 14.4487C7.23271 14.6042 7.53179 14.7188 8.00122 14.7188C8.47064 14.7187 8.7697 14.6042 9.17578 14.4487C13.3072 12.8668 14.9974 8.80152 14.2234 4.51063C14.1917 4.33447 14.1586 4.15083 14.1199 4.01521C14.0772 3.86581 14.0129 3.70961 13.8877 3.57048C13.7483 3.41562 13.5519 3.3269 13.3866 3.26216C13.2111 3.19338 12.9635 3.11442 12.6839 3.02528C12.2077 2.8734 11.7739 2.63425 11.2845 2.36443C11.0845 2.2542 10.8752 2.13881 10.65 2.02221C9.90458 1.63622 9.04996 1.28125 7.99916 1.28125ZM11.3334 6.71431C11.6588 6.59908 11.8291 6.24189 11.7139 5.91652C11.5987 5.59114 11.2415 5.42079 10.9161 5.53603C10.3673 5.7304 9.84264 6.10112 9.38224 6.50488C8.91536 6.91432 8.47887 7.38968 8.10806 7.83418C7.8335 8.1633 7.59074 8.48059 7.39375 8.74982C7.21327 8.53365 7.03349 8.37567 6.86207 8.26139C6.69057 8.14706 6.46993 8.00017 6.12476 8.00017C5.77958 8.00017 5.49976 8.27999 5.49976 8.62517C5.49976 8.95062 5.7485 9.21796 6.06624 9.24747C6.19377 9.25931 6.54031 9.60382 6.81574 10.1547C6.91648 10.3562 7.11783 10.4878 7.34279 10.4994C7.56771 10.5109 7.7815 10.4004 7.9023 10.2103C7.9023 10.2103 8.11991 9.88379 8.22314 9.73755C8.43004 9.44443 8.72302 9.04835 9.06792 8.63491C9.41402 8.22003 9.80474 7.79695 10.2064 7.44468C10.6146 7.08672 10.9999 6.83244 11.3334 6.71431Z" fill="#BDA102"/>
</svg>
