<svg width="12" height="13" viewBox="0 0 12 13" fill="none" xmlns="http://www.w3.org/2000/svg">
<path d="M5.5 6.29883C5.29289 6.29883 5.125 6.46672 5.125 6.67383C5.125 6.88093 5.29289 7.04883 5.5 7.04883H8C8.20711 7.04883 8.375 6.88093 8.375 6.67383C8.375 6.46672 8.20711 6.29883 8 6.29883H5.5Z" fill="#67717A"/>
<path d="M4 6.29883C3.79289 6.29883 3.625 6.46672 3.625 6.67383C3.625 6.88094 3.79289 7.04883 4 7.04883H4.00449C4.2116 7.04883 4.37949 6.88094 4.37949 6.67383C4.37949 6.46672 4.2116 6.29883 4.00449 6.29883H4Z" fill="#67717A"/>
<path d="M4 8.29883C3.79289 8.29883 3.625 8.46672 3.625 8.67383C3.625 8.88093 3.79289 9.04883 4 9.04883H6.5C6.70711 9.04883 6.875 8.88093 6.875 8.67383C6.875 8.46672 6.70711 8.29883 6.5 8.29883H4Z" fill="#67717A"/>
<path d="M7.99551 8.29883C7.7884 8.29883 7.62051 8.46672 7.62051 8.67383C7.62051 8.88094 7.7884 9.04883 7.99551 9.04883H8C8.20711 9.04883 8.375 8.88094 8.375 8.67383C8.375 8.46672 8.20711 8.29883 8 8.29883H7.99551Z" fill="#67717A"/>
<path fill-rule="evenodd" clip-rule="evenodd" d="M3.375 1.17383C3.375 0.966721 3.20711 0.798828 3 0.798828C2.79289 0.798828 2.625 0.966721 2.625 1.17383V1.49122C2.22262 1.60527 1.88325 1.79063 1.60077 2.09601C1.21182 2.5165 1.03892 3.04779 0.956124 3.71358C0.87499 4.36598 0.874995 5.20206 0.875 6.26885V6.57881C0.874995 7.6456 0.87499 8.48168 0.956124 9.13407C1.03892 9.79987 1.21182 10.3312 1.60077 10.7516C1.99357 11.1763 2.49638 11.3689 3.12564 11.4603C3.73466 11.5488 4.51277 11.5488 5.49462 11.5488H6.50538C7.48723 11.5488 8.26534 11.5488 8.87436 11.4603C9.50362 11.3689 10.0064 11.1763 10.3992 10.7516C10.7882 10.3312 10.9611 9.79987 11.0439 9.13407C11.125 8.48167 11.125 7.64559 11.125 6.57879V6.26886C11.125 5.20207 11.125 4.36598 11.0439 3.71358C10.9611 3.04779 10.7882 2.5165 10.3992 2.09601C10.1167 1.79063 9.77738 1.60527 9.375 1.49122V1.17383C9.375 0.966721 9.20711 0.798828 9 0.798828C8.79289 0.798828 8.625 0.966721 8.625 1.17383V1.35678C8.05697 1.29881 7.35799 1.29882 6.50538 1.29883H5.49462C4.64201 1.29882 3.94303 1.29881 3.375 1.35678V1.17383ZM2.15135 2.60529C2.28102 2.46511 2.43565 2.35778 2.6393 2.27675C2.68403 2.43382 2.82858 2.54883 3 2.54883C3.20711 2.54883 3.375 2.38093 3.375 2.17383V2.11112C3.9055 2.04961 4.59119 2.04883 5.525 2.04883H6.475C7.40881 2.04883 8.0945 2.04961 8.625 2.11112V2.17383C8.625 2.38093 8.79289 2.54883 9 2.54883C9.17142 2.54883 9.31597 2.43382 9.3607 2.27675C9.56435 2.35778 9.71898 2.46511 9.84865 2.60529C10.0848 2.86056 10.2247 3.21051 10.2987 3.79883H1.70131C1.77526 3.21051 1.91522 2.86056 2.15135 2.60529ZM1.64446 4.54883C1.62527 5.02727 1.625 5.59923 1.625 6.29545V6.55221C1.625 7.65136 1.62568 8.44079 1.70039 9.04152C1.77411 9.63425 1.91424 9.98604 2.15135 10.2424C2.38461 10.4945 2.69864 10.6404 3.23352 10.7181C3.78238 10.7979 4.50594 10.7988 5.525 10.7988H6.475C7.49406 10.7988 8.21762 10.7979 8.76648 10.7181C9.30136 10.6404 9.61539 10.4945 9.84865 10.2424C10.0858 9.98604 10.2259 9.63425 10.2996 9.04152C10.3743 8.44079 10.375 7.65136 10.375 6.55221V6.29545C10.375 5.59923 10.3747 5.02727 10.3555 4.54883H1.64446Z" fill="#67717A"/>
</svg>
