<svg width="25" height="25" viewBox="0 0 25 25" fill="none" xmlns="http://www.w3.org/2000/svg">
<path d="M8.5 12.1738C7.94772 12.1738 7.5 12.6215 7.5 13.1738C7.5 13.7261 7.94772 14.1738 8.5 14.1738H8.50897C9.06126 14.1738 9.50897 13.7261 9.50897 13.1738C9.50897 12.6215 9.06126 12.1738 8.50897 12.1738H8.5Z" fill="#0C254B"/>
<path d="M12.4955 12.1738C11.9432 12.1738 11.4955 12.6215 11.4955 13.1738C11.4955 13.7261 11.9432 14.1738 12.4955 14.1738H12.5045C13.0568 14.1738 13.5045 13.7261 13.5045 13.1738C13.5045 12.6215 13.0568 12.1738 12.5045 12.1738H12.4955Z" fill="#0C254B"/>
<path d="M16.491 12.1738C15.9387 12.1738 15.491 12.6215 15.491 13.1738C15.491 13.7261 15.9387 14.1738 16.491 14.1738H16.5C17.0523 14.1738 17.5 13.7261 17.5 13.1738C17.5 12.6215 17.0523 12.1738 16.5 12.1738H16.491Z" fill="#0C254B"/>
<path d="M8.5 16.1738C7.94772 16.1738 7.5 16.6215 7.5 17.1738C7.5 17.7261 7.94772 18.1738 8.5 18.1738H8.50897C9.06126 18.1738 9.50897 17.7261 9.50897 17.1738C9.50897 16.6215 9.06126 16.1738 8.50897 16.1738H8.5Z" fill="#0C254B"/>
<path d="M12.4955 16.1738C11.9432 16.1738 11.4955 16.6215 11.4955 17.1738C11.4955 17.7261 11.9432 18.1738 12.4955 18.1738H12.5045C13.0568 18.1738 13.5045 17.7261 13.5045 17.1738C13.5045 16.6215 13.0568 16.1738 12.5045 16.1738H12.4955Z" fill="#0C254B"/>
<path fill-rule="evenodd" clip-rule="evenodd" d="M7.25 2.17383C7.25 1.75961 6.91421 1.42383 6.5 1.42383C6.08579 1.42383 5.75 1.75961 5.75 2.17383V2.80862C4.94524 3.03671 4.2665 3.40743 3.70154 4.01819C2.92363 4.85917 2.57785 5.92175 2.41225 7.25334C2.24998 8.55813 2.24999 10.2303 2.25 12.3639V12.9838C2.24999 15.1174 2.24998 16.7895 2.41225 18.0943C2.57785 19.4259 2.92363 20.4885 3.70154 21.3295C4.48714 22.1788 5.49276 22.5639 6.75129 22.7468C7.96932 22.9239 9.52555 22.9238 11.4892 22.9238H13.5108C15.4745 22.9238 17.0307 22.9239 18.2487 22.7468C19.5072 22.5639 20.5129 22.1788 21.2985 21.3295C22.0764 20.4885 22.4222 19.4259 22.5878 18.0943C22.75 16.7895 22.75 15.1173 22.75 12.9838V12.3639C22.75 10.2303 22.75 8.55814 22.5878 7.25334C22.4222 5.92175 22.0764 4.85917 21.2985 4.01819C20.7335 3.40743 20.0548 3.03671 19.25 2.80862V2.17383C19.25 1.75961 18.9142 1.42383 18.5 1.42383C18.0858 1.42383 17.75 1.75961 17.75 2.17383V2.53972C16.6139 2.4238 15.216 2.42381 13.5108 2.42383H11.4892C9.78402 2.42381 8.38606 2.4238 7.25 2.53972V2.17383ZM5.7786 4.37967C5.86806 4.6938 6.15717 4.92383 6.5 4.92383C6.91421 4.92383 7.25 4.58804 7.25 4.17383V4.04841C8.31101 3.92539 9.68237 3.92383 11.55 3.92383H13.45C15.3176 3.92383 16.689 3.92539 17.75 4.04841V4.17383C17.75 4.58804 18.0858 4.92383 18.5 4.92383C18.8428 4.92383 19.1319 4.69381 19.2214 4.37967C19.6287 4.54174 19.938 4.75639 20.1973 5.03675C20.6704 5.54822 20.9505 6.24971 21.0982 7.4302C21.0661 7.426 21.0333 7.42383 21 7.42383H4C3.96672 7.42383 3.93395 7.426 3.90181 7.4302C4.04952 6.24971 4.32959 5.54822 4.80269 5.03675C5.06203 4.75639 5.37129 4.54174 5.7786 4.37967ZM3.79013 8.89407C3.75056 9.85698 3.75 11.0102 3.75 12.4171V12.9306C3.75 15.1289 3.75137 16.7078 3.90078 17.9092C4.04821 19.0947 4.32849 19.7982 4.80269 20.3109C5.26921 20.8152 5.89728 21.1069 6.96704 21.2624C8.06476 21.422 9.51188 21.4238 11.55 21.4238H13.45C15.4881 21.4238 16.9352 21.422 18.033 21.2624C19.1027 21.1069 19.7308 20.8152 20.1973 20.3109C20.6715 19.7982 20.9518 19.0947 21.0992 17.9092C21.2486 16.7078 21.25 15.1289 21.25 12.9306V12.4171C21.25 11.0102 21.2494 9.85698 21.2099 8.89407C21.1433 8.91344 21.0728 8.92383 21 8.92383H4C3.92715 8.92383 3.85673 8.91344 3.79013 8.89407Z" fill="#0C254B"/>
</svg>
