<svg width="50" height="50" viewBox="0 0 50 50" fill="none" xmlns="http://www.w3.org/2000/svg">
<g filter="url(#filter0_d_40_1935)">
<path d="M18.5893 18.75H28.6689C29.6927 18.75 30.4156 19.753 30.0919 20.7243L28.8419 24.4743C28.6377 25.0869 28.0645 25.5 27.4189 25.5H19.5536M18.5893 18.75L18.559 18.5379C18.4534 17.7989 17.8205 17.25 17.0741 17.25H16.5M18.5893 18.75L19.5536 25.5M19.5536 25.5L19.691 26.4621C19.7966 27.2011 20.4295 27.75 21.1759 27.75H27.75M27.75 27.75C26.9216 27.75 26.25 28.4216 26.25 29.25C26.25 30.0784 26.9216 30.75 27.75 30.75C28.5784 30.75 29.25 30.0784 29.25 29.25C29.25 28.4216 28.5784 27.75 27.75 27.75ZM23.25 29.25C23.25 30.0784 22.5784 30.75 21.75 30.75C20.9216 30.75 20.25 30.0784 20.25 29.25C20.25 28.4216 20.9216 27.75 21.75 27.75C22.5784 27.75 23.25 28.4216 23.25 29.25Z" stroke="#3D47B4" stroke-width="1.5" stroke-linecap="round" stroke-linejoin="round"/>
</g>
<defs>
<filter id="filter0_d_40_1935" x="-8" y="-8" width="66" height="66" filterUnits="userSpaceOnUse" color-interpolation-filters="sRGB">
<feFlood flood-opacity="0" result="BackgroundImageFix"/>
<feColorMatrix in="SourceAlpha" type="matrix" values="0 0 0 0 0 0 0 0 0 0 0 0 0 0 0 0 0 0 127 0" result="hardAlpha"/>
<feOffset dx="1" dy="1"/>
<feGaussianBlur stdDeviation="8"/>
<feComposite in2="hardAlpha" operator="out"/>
<feColorMatrix type="matrix" values="0 0 0 0 0 0 0 0 0 0 0 0 0 0 0 0 0 0 0.08 0"/>
<feBlend mode="normal" in2="BackgroundImageFix" result="effect1_dropShadow_40_1935"/>
<feBlend mode="normal" in="SourceGraphic" in2="effect1_dropShadow_40_1935" result="shape"/>
</filter>
</defs>
</svg>
