<svg width="60" height="68" viewBox="0 0 60 68" fill="none" xmlns="http://www.w3.org/2000/svg">
<path fill-rule="evenodd" clip-rule="evenodd" d="M40.3204 1.13741C37.1533 -0.447399 34.1971 0.937979 29.3295 3.21914L14.9311 9.96683C10.0635 12.248 7.10727 13.6334 6.29874 17.0814C5.81719 19.1562 6.2795 21.0091 7.3695 23.2023L6.1078 23.7935C4.68655 24.4594 3.42549 25.0503 2.49475 25.6622C1.49712 26.3182 0.524314 27.2205 0.176224 28.6678C-0.176767 30.1355 0.287664 31.4289 0.896051 32.507C1.45323 33.4943 2.31425 34.6123 3.26924 35.8524L6.46831 40.0073C11.5404 46.595 19.8961 49.3573 27.6091 47.4502C30.4149 49.3179 33.1495 50.5281 35.7116 51.0124C34.0116 53.9056 33.3144 57.5742 33.5702 61.3233C33.7087 63.3544 34.6957 65.1076 36.015 66.2241C37.2885 67.3019 39.2348 68.0345 41.0882 67.1659L56.6004 59.8963C58.4538 59.0277 59.1361 57.0632 59.1227 55.3949C59.1088 53.6666 58.3929 51.7863 56.9207 50.3802C54.1979 47.7797 50.925 45.9662 47.6072 45.4254C48.8655 43.1526 49.6787 40.2876 50.0353 36.9504C56.4613 32.2477 59.7012 24.0426 57.8803 15.9135L56.7342 10.7965C56.3922 9.26914 56.0839 7.89205 55.6817 6.83212C55.2425 5.67478 54.5456 4.49026 53.1919 3.82243C51.8569 3.16389 50.541 3.33414 49.3986 3.68113C48.3328 4.00485 47.0718 4.59592 45.6507 5.26208L44.3392 5.87672C43.3511 3.63573 42.223 2.09493 40.3204 1.13741ZM45.8721 10.0042C45.9732 10.3036 46.0762 10.6106 46.1817 10.9252C48.6282 18.2346 49.9545 25.0287 50.2013 30.8795C53.4735 27.0777 54.8769 21.8688 53.7349 16.7702L52.6222 11.8026C52.2358 10.0775 51.9945 9.02594 51.7221 8.30802C51.5958 7.97525 51.501 7.8236 51.4543 7.76224C51.4452 7.75034 51.4386 7.7427 51.4345 7.73827C51.4323 7.73778 51.4122 7.73342 51.367 7.73364C51.266 7.73412 51.068 7.75649 50.7162 7.86335C49.9658 8.09126 48.9736 8.55068 47.3846 9.29537L45.8721 10.0042ZM22.8205 43.6828C18.4844 39.7533 14.1158 34.3951 10.0703 27.8485C9.89606 27.5661 9.72608 27.2905 9.56067 27.0212L8.09795 27.7067C6.50891 28.4514 5.52099 28.92 4.8657 29.3508C4.55848 29.5528 4.41459 29.6907 4.34964 29.7679C4.32054 29.8025 4.31126 29.8204 4.31023 29.8224C4.31102 29.8284 4.31242 29.8387 4.31577 29.8533C4.33303 29.9285 4.38891 30.0984 4.56384 30.4083C4.94124 31.0771 5.59499 31.9353 6.67349 33.336L9.77917 37.3697C12.9534 41.4924 17.827 43.7453 22.8205 43.6828ZM40.763 46.3196C47.1852 43.3099 47.7488 28.9928 42.1611 12.228C40.6225 7.61855 39.9313 5.74569 38.5435 5.03926C37.2438 4.3884 35.435 5.17136 31.1536 7.17783L16.8062 13.9016C12.5247 15.9081 10.7657 16.7972 10.4343 18.2124C10.0892 19.731 11.0862 21.4605 13.6441 25.5922C22.9526 40.6133 34.3408 49.3293 40.763 46.3196ZM37.8143 61.1456C37.4521 55.8363 39.4209 51.7944 42.6375 50.287C45.8542 48.7795 50.2201 49.8527 54.0685 53.5282C54.6188 54.0538 54.8637 54.742 54.8682 55.3038C54.8719 55.7632 54.741 55.9091 54.7154 55.9338L39.2491 63.1819C39.2137 63.1858 39.0179 63.1931 38.6672 62.8963C38.2383 62.5333 37.8661 61.9048 37.8143 61.1456Z" fill="#BCA051"/>
</svg>
