<svg width="32" height="32" viewBox="0 0 32 32" fill="none" xmlns="http://www.w3.org/2000/svg">
<path d="M14.0468 18.4867C13.7633 18.1847 13.2886 18.1697 12.9867 18.4532C12.6847 18.7367 12.6697 19.2114 12.9532 19.5133C13.68 20.2874 14.7934 20.75 16 20.75C17.2066 20.75 18.32 20.2874 19.0468 19.5133C19.3303 19.2114 19.3153 18.7367 19.0133 18.4532C18.7114 18.1697 18.2367 18.1847 17.9532 18.4867C17.5398 18.927 16.838 19.25 16 19.25C15.162 19.25 14.4602 18.927 14.0468 18.4867Z" fill="white"/>
<path d="M12 15C12 14.4477 12.4477 14 13 14H13.009C13.5612 14 14.009 14.4477 14.009 15C14.009 15.5523 13.5612 16 13.009 16H13C12.4477 16 12 15.5523 12 15Z" fill="white"/>
<path d="M19 14C18.4477 14 18 14.4477 18 15C18 15.5523 18.4477 16 19 16H19.009C19.5612 16 20.009 15.5523 20.009 15C20.009 14.4477 19.5612 14 19.009 14H19Z" fill="white"/>
<path fill-rule="evenodd" clip-rule="evenodd" d="M9.25 7C9.25 6.0335 10.0335 5.25 11 5.25C11.9665 5.25 12.75 6.0335 12.75 7C12.75 7.6981 12.3412 8.30073 11.75 8.58159V10.3045C12.5016 10.25 13.3953 10.25 14.4435 10.25H17.5565C18.6047 10.25 19.4984 10.25 20.25 10.3045V8.58159C19.6588 8.30073 19.25 7.6981 19.25 7C19.25 6.0335 20.0335 5.25 21 5.25C21.9665 5.25 22.75 6.0335 22.75 7C22.75 7.6981 22.3412 8.30073 21.75 8.58159V10.5519C22.2882 10.7151 22.7598 10.9731 23.1606 11.3877C23.7579 12.0056 24.0139 12.7812 24.1339 13.7049C24.1754 14.0244 24.2021 14.3751 24.2192 14.7586C25.6355 14.8703 26.75 16.055 26.75 17.5C26.75 18.9574 25.6163 20.15 24.1826 20.244C24.1692 20.4058 24.1532 20.5607 24.1339 20.7089C24.0139 21.6326 23.7579 22.4081 23.1606 23.0261C22.6763 23.5271 22.028 23.7899 21.3642 23.9381C21.2987 23.9527 21.2455 23.9646 21.1996 23.9754C21.2102 24.0385 21.2266 24.1096 21.2478 24.1925L21.2625 24.2488L21.2698 24.2767C21.2875 24.3436 21.308 24.4215 21.3222 24.4822C21.3923 24.7815 21.4479 25.0791 21.4567 25.3488C21.465 25.6064 21.4359 25.9566 21.2161 26.2596C20.972 26.5962 20.6124 26.7176 20.2975 26.7437C20.0008 26.7684 19.6751 26.7172 19.3481 26.6382C18.7696 26.4984 18.2234 26.1501 17.778 25.799C17.3205 25.4384 16.9061 25.0236 16.5893 24.6786C16.3243 24.39 16.1987 24.2933 16.098 24.2444C16.0108 24.202 15.8761 24.1638 15.5253 24.1638H14.4435C13.0773 24.1638 11.9735 24.1638 11.1049 24.043C10.2 23.9172 9.44021 23.6476 8.83944 23.0261C8.2421 22.4081 7.98615 21.6326 7.86609 20.7089C7.84683 20.5607 7.83077 20.4058 7.81737 20.244C6.38373 20.15 5.25 18.9574 5.25 17.5C5.25 16.055 6.36448 14.8703 7.78076 14.7586C7.7979 14.3751 7.82457 14.0244 7.86609 13.7049C7.98615 12.7812 8.2421 12.0056 8.83944 11.3877C9.24023 10.9731 9.7118 10.7151 10.25 10.5519V8.58159C9.65876 8.30073 9.25 7.6981 9.25 7ZM11 6.75C10.8619 6.75 10.75 6.86193 10.75 7C10.75 7.13807 10.8619 7.25 11 7.25C11.1381 7.25 11.25 7.13807 11.25 7C11.25 6.86193 11.1381 6.75 11 6.75ZM24.25 17.1533C24.25 16.8476 24.25 16.5547 24.2488 16.2748C24.82 16.3901 25.25 16.8949 25.25 17.5C25.25 18.1068 24.8176 18.6127 24.2441 18.7262C24.25 18.275 24.25 17.787 24.25 17.2604V17.1533ZM7.75 17.2604C7.74999 17.787 7.74999 18.275 7.75594 18.7262C7.18242 18.6127 6.75 18.1068 6.75 17.5C6.75 16.8949 7.18002 16.3901 7.75116 16.2748C7.74999 16.5549 7.75 16.8476 7.75 17.1534V17.2604ZM20.75 7C20.75 6.86193 20.8619 6.75 21 6.75C21.1381 6.75 21.25 6.86193 21.25 7C21.25 7.13807 21.1381 7.25 21 7.25C20.8619 7.25 20.75 7.13807 20.75 7ZM11.3115 11.8565C10.5825 11.9579 10.1958 12.1428 9.91792 12.4302C9.63658 12.7213 9.4532 13.1318 9.35358 13.8982C9.25149 14.6838 9.25 15.7234 9.25 17.2069C9.25 18.6904 9.25149 19.73 9.35358 20.5156C9.4532 21.282 9.63658 21.6925 9.91792 21.9835C10.1958 22.271 10.5825 22.4559 11.3115 22.5573C12.0648 22.6621 13.0639 22.6638 14.5 22.6638H15.5253C15.9662 22.6638 16.3669 22.7073 16.7535 22.8952C17.1268 23.0765 17.4136 23.3585 17.6941 23.664C17.9806 23.976 18.3349 24.328 18.7066 24.621C19.0904 24.9235 19.4337 25.1157 19.7003 25.1801C19.7936 25.2027 19.8735 25.2189 19.9415 25.2301C19.9266 25.1248 19.9009 24.9916 19.8617 24.8241C19.8574 24.8057 19.8492 24.7748 19.8387 24.735C19.8036 24.6016 19.7423 24.3694 19.7137 24.1827C19.6762 23.9378 19.6371 23.4865 19.9003 23.0882C20.064 22.8407 20.2824 22.705 20.4916 22.6231C20.6548 22.5592 20.8469 22.5165 21.0062 22.481L21.0373 22.4741C21.5564 22.3582 21.8834 22.1891 22.0821 21.9835C22.3634 21.6925 22.5468 21.282 22.6464 20.5156C22.7485 19.73 22.75 18.6904 22.75 17.2069C22.75 15.7234 22.7485 14.6838 22.6464 13.8982C22.5468 13.1318 22.3634 12.7213 22.0821 12.4302C21.8042 12.1428 21.4175 11.9579 20.6885 11.8565C19.9352 11.7517 18.9361 11.75 17.5 11.75H14.5C13.0639 11.75 12.0648 11.7517 11.3115 11.8565Z" fill="white"/>
</svg>
