<svg width="25" height="24" viewBox="0 0 25 24" fill="none" xmlns="http://www.w3.org/2000/svg">
<path d="M12.8354 3.25C10.4882 3.25 8.58545 5.15279 8.58545 7.5C8.58545 9.84721 10.4882 11.75 12.8354 11.75C15.1827 11.75 17.0854 9.84721 17.0854 7.5C17.0854 5.15279 15.1827 3.25 12.8354 3.25Z" fill="#1F4ABE"/>
<path d="M7.6542 5.4079C7.60547 5.3291 7.51061 5.31484 7.32091 5.28631C7.16192 5.26239 6.99915 5.25 6.8335 5.25C5.03857 5.25 3.5835 6.70507 3.5835 8.5C3.5835 10.2949 5.03857 11.75 6.8335 11.75C7.37669 11.75 7.88876 11.6167 8.3388 11.3811C8.50859 11.2922 8.59348 11.2478 8.61383 11.1575C8.63418 11.0672 8.56815 10.9795 8.43608 10.804C7.74382 9.88407 7.3335 8.73995 7.3335 7.5C7.3335 6.90695 7.42736 6.33583 7.60104 5.80068C7.66897 5.59136 7.70293 5.48671 7.6542 5.4079Z" fill="#1F4ABE"/>
<path d="M7.56164 13.5903C7.76841 13.4624 8.04977 13.3013 8.33686 13.1474C8.71542 12.9445 8.9047 12.8431 8.88755 12.7068C8.87041 12.5704 8.67645 12.5226 8.28855 12.427C6.64319 12.0212 4.88114 12.3132 3.40373 13.3029C3.34864 13.3398 3.27694 13.3852 3.1933 13.4381C2.80183 13.686 2.14815 14.0998 1.70467 14.5882C1.42369 14.8976 1.14274 15.3208 1.09167 15.8464C1.03728 16.4061 1.25657 16.9295 1.68114 17.3845C2.24893 17.9931 2.94081 18.5512 3.96463 18.707C4.20387 18.7434 4.32356 18.7616 4.39535 18.6872C4.46715 18.6128 4.44028 18.4709 4.38654 18.1871C4.33284 17.9036 4.31801 17.6051 4.35083 17.2933C4.4571 16.2837 5.02806 15.5497 5.46239 15.1082C6.13541 14.4241 7.06703 13.8795 7.56164 13.5903Z" fill="#1F4ABE"/>
<path d="M17.0535 11.1575C17.0332 11.0672 17.0992 10.9795 17.2313 10.804C17.9235 9.88407 18.3338 8.73995 18.3338 7.5C18.3338 6.90695 18.24 6.33583 18.0663 5.80068C17.9984 5.59136 17.9644 5.48671 18.0131 5.4079C18.0619 5.3291 18.1567 5.31484 18.3464 5.28631C18.5054 5.26239 18.6682 5.25 18.8338 5.25C20.6288 5.25 22.0838 6.70507 22.0838 8.5C22.0838 10.2949 20.6288 11.75 18.8338 11.75C18.2906 11.75 17.7786 11.6167 17.3285 11.3811C17.1588 11.2922 17.0739 11.2478 17.0535 11.1575Z" fill="#1F4ABE"/>
<path d="M18.1058 13.5903C17.899 13.4624 17.6177 13.3013 17.3306 13.1474C16.952 12.9445 16.7627 12.8431 16.7799 12.7068C16.797 12.5704 16.991 12.5226 17.3789 12.427C19.0242 12.0212 20.7863 12.3132 22.2637 13.3029C22.3188 13.3398 22.3905 13.3852 22.4741 13.4381C22.8656 13.686 23.5193 14.0998 23.9628 14.5882C24.2437 14.8976 24.5247 15.3208 24.5758 15.8464C24.6301 16.4061 24.4109 16.9295 23.9863 17.3845C23.4185 17.9931 22.7266 18.5512 21.7028 18.707C21.4635 18.7434 21.3439 18.7616 21.2721 18.6872C21.2003 18.6128 21.2271 18.4709 21.2809 18.1872C21.3346 17.9037 21.3494 17.6051 21.3166 17.2933C21.2103 16.2837 20.6394 15.5497 20.205 15.1082C19.532 14.4241 18.6004 13.8795 18.1058 13.5903Z" fill="#1F4ABE"/>
<path d="M8.52496 14.4733C11.1627 12.8422 14.5085 12.8422 17.1462 14.4733C17.2239 14.5213 17.3222 14.5788 17.4352 14.645C17.9475 14.9447 18.7611 15.4208 19.316 15.9849C19.6646 16.3391 20.0122 16.8221 20.0755 17.4242C20.1433 18.0683 19.8699 18.6646 19.3484 19.1806C18.4868 20.033 17.4194 20.75 16.02 20.75H9.65122C8.25177 20.75 7.18444 20.033 6.32281 19.1806C5.80125 18.6646 5.52784 18.0683 5.59565 17.4242C5.65902 16.8221 6.00662 16.3391 6.35515 15.9849C6.91005 15.4208 7.72324 14.945 8.23551 14.6452C8.34868 14.579 8.44719 14.5214 8.52496 14.4733Z" fill="#1F4ABE"/>
</svg>
