<svg width="25" height="24" viewBox="0 0 25 24" fill="none" xmlns="http://www.w3.org/2000/svg">
<path fill-rule="evenodd" clip-rule="evenodd" d="M12.8335 3.25C10.4863 3.25 8.5835 5.15279 8.5835 7.5C8.5835 9.84721 10.4863 11.75 12.8335 11.75C15.1807 11.75 17.0835 9.84721 17.0835 7.5C17.0835 5.15279 15.1807 3.25 12.8335 3.25ZM10.0835 7.5C10.0835 5.98122 11.3147 4.75 12.8335 4.75C14.3523 4.75 15.5835 5.98122 15.5835 7.5C15.5835 9.01878 14.3523 10.25 12.8335 10.25C11.3147 10.25 10.0835 9.01878 10.0835 7.5Z" fill="#959595"/>
<path d="M6.33354 5.25C4.53861 5.25 3.08354 6.70507 3.08354 8.5C3.08354 10.2949 4.53861 11.75 6.33354 11.75C6.74775 11.75 7.08354 11.4142 7.08354 11C7.08354 10.5858 6.74775 10.25 6.33354 10.25C5.36704 10.25 4.58354 9.4665 4.58354 8.5C4.58354 7.5335 5.36704 6.75 6.33354 6.75C6.74775 6.75 7.08354 6.41421 7.08354 6C7.08354 5.58579 6.74775 5.25 6.33354 5.25Z" fill="#959595"/>
<path d="M6.58049 12.9324C6.54317 12.5199 6.17849 12.2157 5.76596 12.253C4.82744 12.338 3.91489 12.699 3.11059 13.3184C3.06425 13.3541 3.00321 13.3985 2.93148 13.4506C2.59079 13.6985 2.00909 14.1217 1.61708 14.6179C1.3666 14.935 1.13236 15.3499 1.09019 15.8489C1.04602 16.3714 1.22119 16.8791 1.59675 17.3418C2.1716 18.0501 2.9604 18.75 4.0595 18.75C4.47371 18.75 4.8095 18.4142 4.8095 18C4.8095 17.5858 4.47371 17.25 4.0595 17.25C3.65999 17.25 3.25681 17.0069 2.76142 16.3965C2.58925 16.1844 2.57845 16.051 2.58486 15.9752C2.59326 15.8758 2.64614 15.7351 2.79412 15.5477C3.04336 15.2322 3.39275 14.9754 3.73235 14.7258C3.83192 14.6526 3.93066 14.5801 4.02578 14.5068C4.61614 14.0522 5.26081 13.8049 5.90111 13.747C6.31364 13.7096 6.61781 13.345 6.58049 12.9324Z" fill="#959595"/>
<path d="M18.8335 5.25C18.4193 5.25 18.0835 5.58579 18.0835 6C18.0835 6.41421 18.4193 6.75 18.8335 6.75C19.8 6.75 20.5835 7.5335 20.5835 8.5C20.5835 9.4665 19.8 10.25 18.8335 10.25C18.4193 10.25 18.0835 10.5858 18.0835 11C18.0835 11.4142 18.4193 11.75 18.8335 11.75C20.6284 11.75 22.0835 10.2949 22.0835 8.5C22.0835 6.70507 20.6284 5.25 18.8335 5.25Z" fill="#959595"/>
<path d="M19.9011 12.253C19.4885 12.2157 19.1239 12.5199 19.0865 12.9324C19.0492 13.345 19.3534 13.7096 19.7659 13.747C20.4062 13.8049 21.0509 14.0522 21.6413 14.5068C21.7364 14.5801 21.8351 14.6526 21.9346 14.7258C22.2742 14.9754 22.6237 15.2322 22.8729 15.5477C23.0209 15.7351 23.0738 15.8758 23.0822 15.9752C23.0886 16.051 23.0778 16.1844 22.9056 16.3965C22.4102 17.0069 22.007 17.25 21.6075 17.25C21.1933 17.25 20.8575 17.5858 20.8575 18C20.8575 18.4142 21.1933 18.75 21.6075 18.75C22.7066 18.75 23.4954 18.0501 24.0703 17.3418C24.4458 16.8791 24.621 16.3714 24.5769 15.8489C24.5347 15.3499 24.3004 14.935 24.05 14.6179C23.6579 14.1217 23.0763 13.6986 22.7357 13.4507C22.6639 13.3985 22.6028 13.3541 22.5564 13.3184C21.7521 12.699 20.8396 12.338 19.9011 12.253Z" fill="#959595"/>
<path fill-rule="evenodd" clip-rule="evenodd" d="M8.52301 14.4733C11.1608 12.8422 14.5065 12.8422 17.1443 14.4733C17.222 14.5214 17.3205 14.579 17.4336 14.6452C17.9459 14.9449 18.7592 15.4208 19.3141 15.9849C19.6626 16.3391 20.0102 16.8221 20.0736 17.4242C20.1414 18.0683 19.868 18.6646 19.3464 19.1806C18.4848 20.033 17.4175 20.75 16.018 20.75H9.64927C8.24981 20.75 7.18248 20.033 6.32086 19.1806C5.79929 18.6646 5.52589 18.0683 5.59369 17.4242C5.65707 16.8221 6.00467 16.3391 6.35319 15.9849C6.9081 15.4208 7.72128 14.945 8.23355 14.6452C8.34674 14.579 8.44523 14.5214 8.52301 14.4733ZM16.3554 15.7491C14.2011 14.417 11.4662 14.417 9.31189 15.7491C9.18257 15.8291 9.0439 15.9108 8.90084 15.9952C8.38896 16.297 7.82069 16.6321 7.42248 17.0368C7.17748 17.2859 7.09741 17.4676 7.08545 17.5812C7.07793 17.6527 7.08154 17.8231 7.37583 18.1143C8.10836 18.839 8.81652 19.25 9.64927 19.25H16.018C16.8508 19.25 17.5589 18.839 18.2915 18.1143C18.5858 17.8231 18.5894 17.6527 18.5818 17.5812C18.5699 17.4676 18.4898 17.2859 18.2448 17.0368C17.8466 16.6321 17.2784 16.297 16.7665 15.9952C16.6234 15.9108 16.4847 15.8291 16.3554 15.7491Z" fill="#959595"/>
</svg>
