<svg width="12" height="13" viewBox="0 0 12 13" fill="none" xmlns="http://www.w3.org/2000/svg">
<path fill-rule="evenodd" clip-rule="evenodd" d="M6 1.79883C4.82639 1.79883 3.875 2.75022 3.875 3.92383C3.875 5.09743 4.82639 6.04883 6 6.04883C7.1736 6.04883 8.125 5.09743 8.125 3.92383C8.125 2.75022 7.1736 1.79883 6 1.79883ZM4.625 3.92383C4.625 3.16444 5.24061 2.54883 6 2.54883C6.75939 2.54883 7.375 3.16444 7.375 3.92383C7.375 4.68322 6.75939 5.29883 6 5.29883C5.24061 5.29883 4.625 4.68322 4.625 3.92383Z" fill="#67717A"/>
<path d="M2.75002 2.79883C1.85256 2.79883 1.12502 3.52637 1.12502 4.42383C1.12502 5.32129 1.85256 6.04883 2.75002 6.04883C2.95713 6.04883 3.12502 5.88093 3.12502 5.67383C3.12502 5.46672 2.95713 5.29883 2.75002 5.29883C2.26677 5.29883 1.87502 4.90708 1.87502 4.42383C1.87502 3.94058 2.26677 3.54883 2.75002 3.54883C2.95713 3.54883 3.12502 3.38093 3.12502 3.17383C3.12502 2.96672 2.95713 2.79883 2.75002 2.79883Z" fill="#67717A"/>
<path d="M2.8735 6.64004C2.85484 6.43378 2.6725 6.28169 2.46623 6.30035C1.99697 6.34281 1.5407 6.52334 1.13855 6.83301C1.11538 6.85085 1.08486 6.87306 1.04899 6.89915C0.878647 7.02308 0.587798 7.23467 0.391792 7.48278C0.266551 7.64132 0.149431 7.8488 0.128345 8.09828C0.106261 8.35955 0.193849 8.61336 0.381628 8.84472C0.669054 9.19886 1.06345 9.54883 1.613 9.54883C1.82011 9.54883 1.988 9.38093 1.988 9.17383C1.988 8.96672 1.82011 8.79883 1.613 8.79883C1.41325 8.79883 1.21166 8.67727 0.963961 8.37208C0.877876 8.26602 0.872477 8.19934 0.87568 8.16144C0.87988 8.11175 0.906321 8.04136 0.98031 7.9477C1.10493 7.78995 1.27963 7.66155 1.44943 7.53674C1.49921 7.50015 1.54858 7.46387 1.59614 7.42724C1.89132 7.19994 2.21366 7.07627 2.53381 7.0473C2.74007 7.02864 2.89216 6.8463 2.8735 6.64004Z" fill="#67717A"/>
<path d="M9 2.79883C8.79289 2.79883 8.625 2.96672 8.625 3.17383C8.625 3.38093 8.79289 3.54883 9 3.54883C9.48325 3.54883 9.875 3.94058 9.875 4.42383C9.875 4.90708 9.48325 5.29883 9 5.29883C8.79289 5.29883 8.625 5.46672 8.625 5.67383C8.625 5.88093 8.79289 6.04883 9 6.04883C9.89746 6.04883 10.625 5.32129 10.625 4.42383C10.625 3.52637 9.89746 2.79883 9 2.79883Z" fill="#67717A"/>
<path d="M9.53379 6.30035C9.32752 6.28169 9.14518 6.43378 9.12652 6.64004C9.10786 6.8463 9.25995 7.02864 9.46621 7.0473C9.78637 7.07627 10.1087 7.19994 10.4039 7.42724C10.4514 7.46386 10.5008 7.50014 10.5506 7.53672C10.7204 7.66152 10.8951 7.78995 11.0197 7.9477C11.0937 8.04136 11.1201 8.11175 11.1243 8.16144C11.1275 8.19934 11.1221 8.26602 11.0361 8.37208C10.7884 8.67727 10.5868 8.79883 10.387 8.79883C10.1799 8.79883 10.012 8.96672 10.012 9.17383C10.012 9.38093 10.1799 9.54883 10.387 9.54883C10.9366 9.54883 11.331 9.19886 11.6184 8.84472C11.8062 8.61336 11.8938 8.35955 11.8717 8.09828C11.8506 7.8488 11.7335 7.64132 11.6082 7.48278C11.4122 7.23467 11.1214 7.02311 10.9511 6.89919C10.9152 6.8731 10.8846 6.85085 10.8615 6.83301C10.4593 6.52334 10.003 6.34281 9.53379 6.30035Z" fill="#67717A"/>
<path fill-rule="evenodd" clip-rule="evenodd" d="M3.84475 7.41047C5.16364 6.59495 6.8365 6.59495 8.15539 7.41047C8.19426 7.43451 8.24349 7.46332 8.30006 7.49642C8.55619 7.64629 8.96285 7.88425 9.2403 8.16627C9.41456 8.3434 9.58836 8.58487 9.62005 8.88592C9.65395 9.20799 9.51725 9.50611 9.25646 9.76412C8.82565 10.1903 8.29199 10.5488 7.59226 10.5488H4.40789C3.70816 10.5488 3.17449 10.1903 2.74368 9.76412C2.4829 9.50611 2.3462 9.20799 2.3801 8.88592C2.41179 8.58487 2.58559 8.3434 2.75985 8.16627C3.0373 7.88425 3.44389 7.64633 3.70003 7.49645C3.75662 7.46333 3.80587 7.43452 3.84475 7.41047ZM7.76095 8.04837C6.68378 7.38231 5.31636 7.38231 4.2392 8.04837C4.17454 8.08835 4.1052 8.12924 4.03367 8.17141C3.77773 8.32232 3.4936 8.48986 3.29449 8.69225C3.17199 8.81676 3.13196 8.90764 3.12598 8.96443C3.12221 9.00019 3.12402 9.08538 3.27117 9.23096C3.63743 9.59333 3.99151 9.79883 4.40789 9.79883H7.59226C8.00864 9.79883 8.36271 9.59333 8.72898 9.23096C8.87613 9.08538 8.87793 9.00019 8.87417 8.96443C8.86819 8.90764 8.82815 8.81676 8.70566 8.69225C8.50655 8.48986 8.22243 8.32234 7.9665 8.17143C7.89495 8.12924 7.82562 8.08836 7.76095 8.04837Z" fill="#67717A"/>
</svg>
