<svg width="13" height="12" viewBox="0 0 13 12" fill="none" xmlns="http://www.w3.org/2000/svg">
<path fill-rule="evenodd" clip-rule="evenodd" d="M5.00015 1.375C3.68847 1.375 2.62515 2.43832 2.62515 3.75C2.62515 5.06168 3.68847 6.125 5.00015 6.125C6.31182 6.125 7.37515 5.06168 7.37515 3.75C7.37515 2.43832 6.31182 1.375 5.00015 1.375ZM3.37515 3.75C3.37515 2.85254 4.10268 2.125 5.00015 2.125C5.89761 2.125 6.62515 2.85254 6.62515 3.75C6.62515 4.64746 5.89761 5.375 5.00015 5.375C4.10268 5.375 3.37515 4.64746 3.37515 3.75Z" fill="#67717A"/>
<path fill-rule="evenodd" clip-rule="evenodd" d="M7.43662 7.72506C5.94364 6.92498 4.05665 6.92498 2.56367 7.72506C2.51713 7.75001 2.4589 7.77955 2.39247 7.81326C2.09627 7.96354 1.63691 8.19661 1.32199 8.47404C1.12785 8.64507 0.919788 8.88927 0.881304 9.20613C0.839167 9.55307 1.01144 9.8584 1.30299 10.1084C1.80045 10.5349 2.39636 10.875 3.16301 10.875H6.83729C7.60393 10.875 8.19984 10.5349 8.6973 10.1084C8.98885 9.8584 9.16113 9.55307 9.11899 9.20613C9.08051 8.88927 8.87245 8.64507 8.6783 8.47404C8.36338 8.19661 7.90404 7.96355 7.60784 7.81326C7.5414 7.77956 7.48317 7.75001 7.43662 7.72506ZM1.79118 9.53903C1.61447 9.38751 1.62421 9.30957 1.62577 9.29704C1.63075 9.25606 1.66949 9.16743 1.81776 9.03682C2.05242 8.8301 2.38929 8.658 2.68549 8.50668C2.76703 8.46503 2.84554 8.42492 2.91793 8.38612C4.18963 7.70463 5.81067 7.70463 7.08236 8.38612C7.15477 8.42493 7.23324 8.46502 7.3148 8.50668C7.61101 8.658 7.94788 8.8301 8.18254 9.03682C8.33081 9.16743 8.36948 9.25558 8.37446 9.29656C8.37603 9.30909 8.38582 9.38751 8.20911 9.53903C7.78686 9.90108 7.35845 10.125 6.83729 10.125H3.16301C2.64184 10.125 2.21343 9.90108 1.79118 9.53903Z" fill="#67717A"/>
<path d="M8.32303 2.90222C8.4126 2.88445 8.50606 2.875 8.60245 2.875C9.3392 2.875 9.87507 3.41103 9.87507 4C9.87507 4.58897 9.3392 5.125 8.60245 5.125C8.50606 5.125 8.4126 5.11555 8.32303 5.09778C8.11989 5.05749 7.92253 5.1895 7.88224 5.39265C7.84194 5.5958 7.97396 5.79315 8.17711 5.83345C8.31461 5.86072 8.45695 5.875 8.60245 5.875C9.68561 5.875 10.6251 5.06788 10.6251 4C10.6251 2.93212 9.68561 2.125 8.60245 2.125C8.45695 2.125 8.31461 2.13928 8.17711 2.16655C7.97396 2.20685 7.84194 2.4042 7.88224 2.60735C7.92253 2.8105 8.11989 2.94251 8.32303 2.90222Z" fill="#67717A"/>
<path d="M9.25007 7.125C9.04296 7.125 8.87507 7.29289 8.87507 7.5C8.87507 7.70711 9.04296 7.875 9.25007 7.875C9.40515 7.875 9.67421 7.92189 9.9897 8.01977C10.2995 8.1159 10.6231 8.2516 10.8854 8.40869C11.1619 8.5742 11.3117 8.72876 11.3595 8.83762C11.3782 8.8801 11.3771 8.90518 11.3714 8.926C11.3644 8.95194 11.3391 9.00926 11.2464 9.09194C10.8722 9.42578 10.5004 9.625 10.0532 9.625H9.80811C9.60101 9.625 9.43311 9.79289 9.43311 10C9.43311 10.2071 9.60101 10.375 9.80811 10.375H10.0532C10.7559 10.375 11.2987 10.0503 11.7456 9.65162C11.9137 9.50168 12.04 9.32604 12.0952 9.1224C12.1519 8.91365 12.1238 8.71252 12.0462 8.53591C11.9015 8.20658 11.5816 7.95135 11.2707 7.76523C10.9458 7.57068 10.5647 7.4129 10.2119 7.30346C9.86486 7.19577 9.51353 7.125 9.25007 7.125Z" fill="#67717A"/>
</svg>
