<svg width="25" height="24" viewBox="0 0 25 24" fill="none" xmlns="http://www.w3.org/2000/svg">
<path fill-rule="evenodd" clip-rule="evenodd" d="M3.75 10.6868L3.19211 11.2218C2.79347 11.604 2.16045 11.5907 1.77821 11.1921C1.39597 10.7935 1.40926 10.1604 1.80789 9.77821L6.20301 5.56386C7.49217 4.32768 8.53207 3.33052 9.4598 2.6518C10.4246 1.94593 11.3777 1.5 12.5 1.5C13.6223 1.5 14.5754 1.94593 15.5402 2.6518C16.4679 3.33053 17.5078 4.32768 18.797 5.56387L23.1921 9.77821C23.5907 10.1604 23.604 10.7935 23.2218 11.1921C22.8396 11.5907 22.2065 11.604 21.8079 11.2218L21.25 10.6868V13.5565C21.25 15.3942 21.25 16.8498 21.0969 17.989C20.9392 19.1614 20.6071 20.1104 19.8588 20.8588C19.1104 21.6071 18.1614 21.9392 16.989 22.0969C15.8498 22.25 14.3942 22.25 12.5564 22.25H12.4435C10.6058 22.25 9.15018 22.25 8.01098 22.0969C6.83856 21.9392 5.88961 21.6071 5.14124 20.8588C4.39288 20.1104 4.06076 19.1614 3.90314 17.989C3.74997 16.8498 3.74999 15.3942 3.75 13.5564V10.6868ZM11.25 17C11.25 16.3096 11.8076 15.75 12.4955 15.75C13.1777 15.75 13.75 16.3117 13.75 17C13.75 17.6883 13.1777 18.25 12.4955 18.25C11.8076 18.25 11.25 17.6904 11.25 17Z" fill="#1F4ABE"/>
</svg>
