<svg width="25" height="25" viewBox="0 0 25 25" fill="none" xmlns="http://www.w3.org/2000/svg">
<path d="M14 7.42383C13.5858 7.42383 13.25 7.75961 13.25 8.17383C13.25 8.58804 13.5858 8.92383 14 8.92383H16C16.4142 8.92383 16.75 8.58804 16.75 8.17383C16.75 7.75961 16.4142 7.42383 16 7.42383H14Z" fill="#0C254B"/>
<path d="M14 10.4238C13.5858 10.4238 13.25 10.7596 13.25 11.1738C13.25 11.588 13.5858 11.9238 14 11.9238H16C16.4142 11.9238 16.75 11.588 16.75 11.1738C16.75 10.7596 16.4142 10.4238 16 10.4238H14Z" fill="#0C254B"/>
<path fill-rule="evenodd" clip-rule="evenodd" d="M12.5033 20.9238H17.4967L17.5 20.9238L17.5033 20.9238H22.5C22.9142 20.9238 23.25 20.588 23.25 20.1738C23.25 19.7596 22.9142 19.4238 22.5 19.4238H21.75V9.50935L22.0002 9.73297C22.309 10.009 22.7831 9.98249 23.0592 9.67369C23.3352 9.36488 23.3087 8.89075 22.9999 8.61468L18.1927 4.31724C17.5768 3.76662 17.0612 3.30567 16.599 2.98893C16.1091 2.65327 15.6024 2.42383 15 2.42383C14.3976 2.42383 13.8909 2.65327 13.401 2.98893C12.9388 3.30567 12.4232 3.76661 11.8073 4.31721L7.00015 8.61468C6.69134 8.89075 6.6648 9.36488 6.94086 9.67369C7.21692 9.98249 7.69106 10.009 7.99986 9.73297L8.25 9.50936V19.4238H4.75V14.77C5.11799 14.6131 5.42761 14.3488 5.66066 14.038C6.03849 13.5343 6.25 12.8727 6.25 12.1738C6.25 11.475 6.03849 10.8134 5.66066 10.3096C5.28266 9.80562 4.70321 9.42383 4 9.42383C3.29679 9.42383 2.71734 9.80562 2.33934 10.3096C1.96151 10.8134 1.75 11.475 1.75 12.1738C1.75 12.8727 1.96151 13.5343 2.33934 14.038C2.57239 14.3488 2.88201 14.6131 3.25 14.77V19.4238H2.5C2.08579 19.4238 1.75 19.7596 1.75 20.1738C1.75 20.588 2.08579 20.9238 2.5 20.9238H12.4967L12.5 20.9238L12.5033 20.9238ZM14.4553 13.4238H15.5448C15.9776 13.4238 16.3744 13.4237 16.6972 13.4671C17.0527 13.5149 17.4284 13.6274 17.7374 13.9364C18.0465 14.2454 18.1589 14.6211 18.2067 14.9766C18.2501 15.2994 18.2501 15.6962 18.25 16.129L18.25 19.4238H20.25V8.17383L20.25 8.16842L17.2294 5.46811C16.5675 4.87637 16.1238 4.4817 15.7511 4.2263C15.3969 3.98357 15.186 3.92383 15 3.92383C14.814 3.92383 14.6032 3.98357 14.2489 4.2263C13.8762 4.4817 13.4325 4.87637 12.7706 5.46811L9.74998 8.16843L9.75 8.17383V19.4238H11.75L11.75 16.1288C11.75 15.6961 11.7499 15.2993 11.7933 14.9765C11.8411 14.6211 11.9536 14.2454 12.2626 13.9364C12.5716 13.6274 12.9473 13.5149 13.3028 13.4671C13.6256 13.4237 14.0224 13.4238 14.4553 13.4238ZM16.75 16.1738V19.4238H13.25V16.1736C13.25 15.6811 13.2516 15.3871 13.2799 15.1764C13.2929 15.0799 13.3082 15.0316 13.3172 15.0098C13.3192 15.0048 13.3208 15.0015 13.3219 14.9995L13.3232 14.9971C13.3236 14.9968 13.3237 14.9967 13.3232 14.9971L13.3257 14.9957C13.3276 14.9947 13.3309 14.9931 13.336 14.991C13.3578 14.982 13.4061 14.9667 13.5027 14.9538C13.7134 14.9254 14.0074 14.9238 14.5 14.9238H15.5C15.9926 14.9238 16.2866 14.9254 16.4973 14.9538C16.5939 14.9667 16.6423 14.982 16.664 14.991C16.6691 14.9931 16.6724 14.9947 16.6743 14.9957L16.6768 14.9971L16.6781 14.9995C16.6792 15.0014 16.6808 15.0048 16.6828 15.0098C16.6918 15.0316 16.7071 15.0799 16.7201 15.1765C16.7484 15.3872 16.75 15.6812 16.75 16.1738ZM3.25 12.1738C3.25 11.7681 3.37427 11.4297 3.53934 11.2096C3.70423 10.9898 3.87478 10.9238 4 10.9238C4.12522 10.9238 4.29577 10.9898 4.46066 11.2096C4.62573 11.4297 4.75 11.7681 4.75 12.1738C4.75 12.5795 4.62573 12.918 4.46066 13.138C4.29577 13.3579 4.12522 13.4238 4 13.4238C3.87478 13.4238 3.70423 13.3579 3.53934 13.138C3.37427 12.918 3.25 12.5795 3.25 12.1738Z" fill="#0C254B"/>
</svg>
