<svg width="32" height="32" viewBox="0 0 32 32" fill="none" xmlns="http://www.w3.org/2000/svg">
<path fill-rule="evenodd" clip-rule="evenodd" d="M20.1923 16.7115C20.0758 16.4321 19.8027 16.25 19.5 16.25C19.1972 16.25 18.9241 16.4321 18.8076 16.7115L16.3076 22.7115C16.1483 23.0939 16.3291 23.533 16.7115 23.6923C17.0938 23.8516 17.5329 23.6708 17.6923 23.2885L18.3333 21.75H20.6666L21.3076 23.2885C21.467 23.6708 21.9061 23.8516 22.2884 23.6923C22.6708 23.533 22.8516 23.0939 22.6923 22.7115L20.1923 16.7115ZM19.5 18.95L20.0416 20.25H18.9583L19.5 18.95Z" fill="#171BE7"/>
<path d="M12.15 8.25C12.5642 8.25 12.9 8.58579 12.9 9V9.21552H16C16.4142 9.21552 16.75 9.5513 16.75 9.96552C16.75 10.3797 16.4142 10.7155 16 10.7155H14.7973C14.4274 11.7466 13.8546 12.7112 13.2139 13.5773L14.1155 14.5145C14.4027 14.8131 14.3935 15.2879 14.0949 15.575C13.7964 15.8622 13.3216 15.8529 13.0345 15.5544L12.2613 14.7506C11.6599 15.4317 11.0405 16.0391 10.4827 16.5521C10.1778 16.8324 9.7033 16.8126 9.42293 16.5077C9.14256 16.2028 9.16244 15.7283 9.46735 15.4479C10.0382 14.923 10.6624 14.3072 11.2537 13.6241C11.1285 13.4632 11.0029 13.2959 10.8854 13.133C10.6497 12.8061 10.4084 12.4449 10.2852 12.1805C10.1102 11.805 10.2727 11.3588 10.6482 11.1838C11.0236 11.0089 11.4698 11.1714 11.6448 11.5468C11.7016 11.6686 11.8653 11.9272 12.1021 12.2557C12.1375 12.3048 12.1738 12.3544 12.2105 12.404C12.5922 11.859 12.9255 11.2931 13.1819 10.7155H9C8.58579 10.7155 8.25 10.3797 8.25 9.96552C8.25 9.5513 8.58579 9.21552 9 9.21552H11.4V9C11.4 8.58579 11.7358 8.25 12.15 8.25Z" fill="#171BE7"/>
<path fill-rule="evenodd" clip-rule="evenodd" d="M13.4511 5.25H13.5489C15.1512 5.24999 16.4205 5.24998 17.4248 5.36868C18.4557 5.49055 19.3044 5.74638 20.0134 6.3282C20.2539 6.52558 20.4744 6.74612 20.6718 6.98663C21.3772 7.8462 21.6099 8.92342 21.6958 10.3042C23.0763 10.3901 24.1536 10.6226 25.0134 11.3282C25.2539 11.5256 25.4744 11.7461 25.6718 11.9866C26.2536 12.6956 26.5095 13.5443 26.6313 14.5752C26.75 15.5795 26.75 16.8488 26.75 18.451V18.5489C26.75 20.1511 26.75 21.4205 26.6313 22.4248C26.5095 23.4557 26.2536 24.3044 25.6718 25.0134C25.4744 25.2539 25.2539 25.4744 25.0134 25.6718C24.3044 26.2536 23.4557 26.5095 22.4248 26.6313C21.4205 26.75 20.1512 26.75 18.549 26.75H18.4511C16.8489 26.75 15.5795 26.75 14.5752 26.6313C13.5443 26.5095 12.6956 26.2536 11.9866 25.6718C11.7461 25.4744 11.5256 25.2539 11.3282 25.0134C10.6228 24.1538 10.3901 23.0766 10.3042 21.6958C8.92341 21.6099 7.8462 21.3772 6.98663 20.6718C6.74612 20.4744 6.52558 20.2539 6.3282 20.0134C5.74638 19.3044 5.49055 18.4557 5.36868 17.4248C5.24998 16.4205 5.24999 15.1512 5.25 13.5489V13.4511C5.24999 11.8488 5.24998 10.5795 5.36868 9.57525C5.49055 8.54428 5.74638 7.69558 6.3282 6.98663C6.52558 6.74612 6.74612 6.52558 6.98663 6.3282C7.69558 5.74638 8.54428 5.49055 9.57525 5.36868C10.5795 5.24998 11.8488 5.24999 13.4511 5.25ZM11.7843 21.2769C11.8525 22.7782 12.0496 23.528 12.4877 24.0618C12.6228 24.2263 12.7737 24.3772 12.9382 24.5123C13.3356 24.8384 13.862 25.0366 14.7513 25.1417C15.6572 25.2488 16.8379 25.25 18.5 25.25C20.1621 25.25 21.3428 25.2488 22.2487 25.1417C23.138 25.0366 23.6644 24.8384 24.0618 24.5123C24.2263 24.3772 24.3772 24.2263 24.5123 24.0618C24.8384 23.6644 25.0366 23.138 25.1417 22.2487C25.2488 21.3428 25.25 20.1621 25.25 18.5C25.25 16.8379 25.2488 15.6572 25.1417 14.7513C25.0366 13.862 24.8384 13.3356 24.5123 12.9382C24.3772 12.7737 24.2263 12.6228 24.0618 12.4877C23.5307 12.0519 22.7855 11.8543 21.2979 11.7852L11.7843 21.2769ZM20.2167 10.7451C20.1494 9.22909 19.9525 8.47463 19.5123 7.93822C19.3772 7.77366 19.2263 7.62277 19.0618 7.48772C18.6644 7.16158 18.138 6.96344 17.2487 6.85831C16.3428 6.75123 15.1621 6.75 13.5 6.75C11.8379 6.75 10.6572 6.75123 9.75133 6.85831C8.86197 6.96344 8.33563 7.16158 7.93822 7.48772C7.77366 7.62277 7.62277 7.77366 7.48772 7.93822C7.16158 8.33563 6.96344 8.86197 6.85831 9.75133C6.75123 10.6572 6.75 11.8379 6.75 13.5C6.75 15.1621 6.75123 16.3428 6.85831 17.2487C6.96344 18.138 7.16158 18.6644 7.48772 19.0618C7.62277 19.2263 7.77366 19.3772 7.93822 19.5123C8.47215 19.9505 9.22213 20.1476 10.7241 20.2158L20.2167 10.7451Z" fill="#171BE7"/>
</svg>
