<svg width="12" height="13" viewBox="0 0 12 13" fill="none" xmlns="http://www.w3.org/2000/svg">
<path fill-rule="evenodd" clip-rule="evenodd" d="M6 3.54883C4.8264 3.54883 3.875 4.50022 3.875 5.67383C3.875 6.84743 4.8264 7.79883 6 7.79883C7.1736 7.79883 8.125 6.84743 8.125 5.67383C8.125 4.50022 7.1736 3.54883 6 3.54883ZM4.625 5.67383C4.625 4.91444 5.24061 4.29883 6 4.29883C6.75939 4.29883 7.375 4.91444 7.375 5.67383C7.375 6.43322 6.75939 7.04883 6 7.04883C5.24061 7.04883 4.625 6.43322 4.625 5.67383Z" fill="#67717A"/>
<path fill-rule="evenodd" clip-rule="evenodd" d="M6 0.798828C3.36226 0.798828 1.125 2.9786 1.125 5.63671C1.125 6.99794 1.70093 8.13588 2.50844 9.07507C3.31248 10.0102 4.35917 10.7644 5.33912 11.371L5.34556 11.375L5.35216 11.3787C5.54978 11.4903 5.77302 11.5488 6 11.5488C6.22698 11.5488 6.45022 11.4903 6.64784 11.3787L6.65359 11.3755L6.65923 11.372C7.64274 10.7702 8.68963 10.0136 9.49332 9.0757C10.3001 8.13411 10.875 6.99344 10.875 5.63671C10.875 2.9786 8.63774 0.798828 6 0.798828ZM1.875 5.63671C1.875 3.40203 3.76719 1.54883 6 1.54883C8.23281 1.54883 10.125 3.40203 10.125 5.63671C10.125 6.76533 9.65069 7.7394 8.9238 8.5877C8.19539 9.43778 7.22671 10.145 6.2741 10.7284C6.19046 10.7745 6.09612 10.7988 6 10.7988C5.90416 10.7988 5.81009 10.7747 5.72664 10.7288C4.77437 10.1388 3.80587 9.43367 3.07714 8.5861C2.35004 7.74044 1.875 6.76942 1.875 5.63671Z" fill="#67717A"/>
</svg>
