<svg width="25" height="24" viewBox="0 0 25 24" fill="none" xmlns="http://www.w3.org/2000/svg">
<path d="M7.16692 16.4992C6.61463 16.4992 6.16691 16.9469 6.16692 17.4992C6.16692 18.0515 6.61463 18.4992 7.16692 18.4992L11.1669 18.4992C11.7192 18.4992 12.1669 18.0515 12.1669 17.4992C12.1669 16.9469 11.7192 16.4992 11.1669 16.4992L7.16692 16.4992Z" fill="#1F4ABE"/>
<path fill-rule="evenodd" clip-rule="evenodd" d="M17.6328 1.74921C18.2683 1.74919 18.8097 1.74917 19.2531 1.80159C19.7272 1.85765 20.1643 1.98032 20.5601 2.2757C20.9536 2.56945 21.1998 2.95467 21.3974 3.39475C21.5841 3.81022 21.7542 4.33874 21.9559 4.9656L22.6672 7.17525C22.8432 7.72148 22.9844 8.1594 22.881 8.82153C22.8382 9.09595 22.7835 9.32113 22.6908 9.52968C22.6036 9.72582 22.4949 9.87609 22.4116 9.99126L22.3992 10.0084C22.3261 10.1095 22.2486 10.2079 22.1669 10.3036L22.1669 15.3198C22.167 16.6739 22.167 17.7905 22.0482 18.6743C21.9234 19.6021 21.6515 20.4215 20.9953 21.0776C20.3392 21.7338 19.5198 22.0057 18.592 22.1305C17.7082 22.2493 16.5916 22.2493 15.2375 22.2492L9.09634 22.2492C7.74222 22.2493 6.62561 22.2493 5.74185 22.1305C4.81402 22.0057 3.9946 21.7337 3.33849 21.0776C2.68238 20.4215 2.41041 19.6021 2.28567 18.6743C2.16685 17.7905 2.16688 16.6739 2.16692 15.3198L2.16692 10.3045C2.08494 10.2086 2.00711 10.1098 1.93384 10.0084L1.92147 9.99128C1.83815 9.87611 1.72942 9.72583 1.64222 9.52968C1.5495 9.32113 1.4948 9.09595 1.45198 8.82153C1.34865 8.15939 1.4898 7.72148 1.66587 7.17524L2.37709 4.96561C2.57884 4.33875 2.74894 3.81022 2.93557 3.39475C3.13325 2.95467 3.37942 2.56945 3.77296 2.2757C4.16869 1.98032 4.60583 1.85765 5.07991 1.80159C5.5233 1.74917 6.06465 1.74919 6.70014 1.74921L17.6328 1.74921ZM17.9212 12.2492C18.6745 12.2492 19.4507 12.0746 20.1669 11.7602L20.1669 15.2492C20.1669 16.6917 20.1648 17.673 20.066 18.4078C19.9711 19.1138 19.8037 19.4409 19.5811 19.6634C19.3586 19.886 19.0315 20.0534 18.3255 20.1483C17.5907 20.2471 16.6094 20.2492 15.1669 20.2492L9.16692 20.2492C7.72444 20.2492 6.74317 20.2471 6.00835 20.1483C5.3023 20.0534 4.97528 19.886 4.75271 19.6634C4.53013 19.4409 4.36276 19.1138 4.26784 18.4078C4.16904 17.673 4.16692 16.6917 4.16692 15.2492L4.16692 11.7606C4.88287 12.0747 5.65879 12.2492 6.41181 12.2492C7.49147 12.2492 8.48819 11.8931 9.28886 11.292C10.0893 11.8927 11.0864 12.2492 12.1658 12.2492C13.2458 12.2492 14.2428 11.8929 15.0436 11.2915C15.8441 11.8925 16.8415 12.2492 17.9212 12.2492Z" fill="#1F4ABE"/>
</svg>
