<svg width="25" height="24" viewBox="0 0 25 24" fill="none" xmlns="http://www.w3.org/2000/svg">
<path d="M6.88372 17.9934C6.88372 17.5792 7.21951 17.2434 7.63372 17.2434L11.6337 17.2434C12.0479 17.2434 12.3837 17.5792 12.3837 17.9934C12.3837 18.4076 12.0479 18.7434 11.6337 18.7434L7.63372 18.7434C7.21951 18.7434 6.88372 18.4076 6.88372 17.9934Z" fill="#959595"/>
<path fill-rule="evenodd" clip-rule="evenodd" d="M19.6827 1.7542C19.3345 1.74702 18.3903 1.75094 17.2993 1.75547L16.7855 1.75757C15.4748 1.76277 14.0458 1.76666 13.1524 1.75404L6.13633 1.75404C5.95943 1.75404 5.61765 1.75793 5.25378 1.82469C4.91066 1.88766 4.42557 2.0271 4.06346 2.38669C3.888 2.56093 3.74773 2.78205 3.63955 2.97898C3.52631 3.18509 3.42312 3.4117 3.33296 3.62874C3.15902 4.04745 3.01579 4.47439 2.93202 4.72409L2.92438 4.74686L2.24563 6.71215C2.13866 6.9974 2.02607 7.43516 1.9648 7.87158C1.93332 8.09583 1.91282 8.33733 1.91762 8.57086C1.92221 8.79466 1.9506 9.06198 2.05029 9.30948C2.20956 9.70488 2.55788 10.1234 2.84344 10.4274C2.85694 10.4418 2.87051 10.4561 2.88416 10.4705C2.88387 10.479 2.88372 10.4877 2.88372 10.4963L2.88372 15.553C2.8837 16.9211 2.88368 18.0238 3.00024 18.891C3.12125 19.7914 3.38011 20.5494 3.98197 21.1515C4.58388 21.7536 5.34177 22.0127 6.24193 22.1337C7.10889 22.2503 8.21119 22.2503 9.57871 22.2503L15.6886 22.2503C17.0562 22.2503 18.1585 22.2503 19.0255 22.1337C19.9256 22.0127 20.6835 21.7536 21.2854 21.1515C21.8873 20.5494 22.1462 19.7914 22.2672 18.891C22.3838 18.0238 22.3837 16.9211 22.3837 15.553L22.3837 10.6079C23.0109 9.95471 23.2933 9.24474 23.4013 8.72305C23.4117 8.67302 23.4169 8.62207 23.4169 8.57098C23.4169 8.10685 23.2732 7.4396 23.0124 6.59055C22.7447 5.7193 22.3317 4.58852 21.745 3.16732C21.739 3.15284 21.7325 3.13855 21.7257 3.12447C21.6197 2.90741 21.4102 2.58857 21.0912 2.31258C20.7652 2.03057 20.2915 1.76676 19.6827 1.7542ZM20.8837 11.652C20.58 11.7915 20.2417 11.9154 19.8654 12.0185C17.7433 12.6 16.3112 11.8235 15.55 11.1825C15.3817 11.3044 15.1978 11.4246 15.0006 11.5372C14.3662 11.8995 13.5455 12.2105 12.632 12.1979C11.3923 12.1808 10.4177 11.6992 9.80169 11.2286C9.22855 11.7055 8.50456 12.075 7.61187 12.1916C6.61954 12.3213 5.74652 12.1695 5.07302 11.9397C4.81964 11.8533 4.58791 11.7535 4.38372 11.6492L4.38372 15.4981C4.38372 16.934 4.38531 17.9355 4.48687 18.6912C4.58554 19.4253 4.76602 19.8141 5.04283 20.091C5.31961 20.3679 5.70816 20.5484 6.44188 20.6471C7.19721 20.7487 8.1983 20.7503 9.63372 20.7503L15.6337 20.7503C17.0691 20.7503 18.0702 20.7487 18.8255 20.6471C19.5593 20.5484 19.9478 20.3679 20.2246 20.091C20.5014 19.8141 20.6819 19.4253 20.7806 18.6912C20.8821 17.9355 20.8837 16.934 20.8837 15.4981L20.8837 11.652ZM12.6527 10.698C11.8348 10.6867 11.1957 10.3803 10.8007 10.1022C11.1534 9.56883 11.3791 9.03153 11.4936 8.61838C11.6041 8.21919 11.3701 7.80597 10.9709 7.69542C10.5717 7.58488 10.1585 7.81887 10.048 8.21806C9.8024 9.10482 8.93223 10.5064 7.41753 10.7043C6.68941 10.7994 6.04977 10.6881 5.5574 10.5201C5.04816 10.3463 4.74028 10.1277 4.67038 10.0619C4.64312 10.0362 4.61399 10.0126 4.58321 9.99128C4.45901 9.90524 4.19824 9.67888 3.93684 9.40055C3.66049 9.1063 3.48749 8.86278 3.44165 8.74898C3.44165 8.74898 3.43533 8.73103 3.42949 8.69451C3.42332 8.65594 3.41863 8.60465 3.4173 8.54007C3.41462 8.40947 3.42617 8.25157 3.45024 8.08012C3.49923 7.73111 3.58951 7.39832 3.65217 7.23342C3.65489 7.22626 3.6575 7.21907 3.66 7.21183L4.34329 5.23345L4.35111 5.21015C4.43572 4.95803 4.56479 4.57345 4.71819 4.20419C4.79653 4.01561 4.87644 3.8428 4.95422 3.70121C5.03706 3.55043 5.09571 3.47557 5.12041 3.45104C5.15862 3.4131 5.27893 3.34513 5.52452 3.30006C5.74937 3.2588 5.97962 3.25404 6.13633 3.25404L13.1366 3.25404C14.0467 3.2668 15.4876 3.26273 16.7915 3.25756L17.3029 3.25547C18.4026 3.25093 19.324 3.24712 19.6518 3.25388C19.8224 3.2574 19.9726 3.32831 20.1098 3.447C20.2429 3.56211 20.3324 3.69693 20.3695 3.76656C20.9397 5.14925 21.3308 6.2248 21.5785 7.031C21.8094 7.78272 21.8991 8.24938 21.9145 8.49756C21.782 9.02385 21.2877 10.0736 19.4691 10.5719C18.069 10.9554 17.1406 10.5232 16.6194 10.1212C16.8093 9.81058 17.0347 9.33028 17.2536 8.64707C17.38 8.25261 17.1627 7.83038 16.7682 7.70399C16.3738 7.5776 15.9515 7.79491 15.8251 8.18937C15.5592 9.01933 15.3245 9.37294 15.276 9.43416C15.101 9.63193 14.737 9.96041 14.2568 10.2346C13.7712 10.5119 13.216 10.7058 12.6527 10.698Z" fill="#959595"/>
</svg>
