<svg width="25" height="25" viewBox="0 0 25 25" fill="none" xmlns="http://www.w3.org/2000/svg">
<path d="M6.71673 18.1672C6.71673 17.753 7.05251 17.4172 7.46673 17.4172L11.4667 17.4172C11.8809 17.4172 12.2167 17.753 12.2167 18.1672C12.2167 18.5814 11.8809 18.9172 11.4667 18.9172L7.46673 18.9172C7.05251 18.9172 6.71673 18.5814 6.71673 18.1672Z" fill="#0C254B"/>
<path fill-rule="evenodd" clip-rule="evenodd" d="M19.5157 1.92803C19.1675 1.92084 18.2233 1.92477 17.1323 1.92929L16.6185 1.9314C15.3079 1.9366 13.8788 1.94049 12.9855 1.92787L5.96933 1.92787C5.79244 1.92787 5.45066 1.93175 5.08679 1.99852C4.74367 2.06149 4.25857 2.20093 3.89646 2.56052C3.72101 2.73475 3.58074 2.95588 3.47255 3.1528C3.35932 3.35892 3.25613 3.58552 3.16597 3.80257C2.99203 4.22128 2.8488 4.64821 2.76502 4.89792L2.75738 4.92068L2.07864 6.88598C1.97167 7.17122 1.85908 7.60899 1.79781 8.04541C1.76633 8.26965 1.74583 8.51116 1.75063 8.74469C1.75522 8.96849 1.78361 9.23581 1.8833 9.48331C2.04257 9.8787 2.39089 10.2972 2.67645 10.6013C2.68994 10.6156 2.70352 10.63 2.71717 10.6443C2.71688 10.6529 2.71673 10.6615 2.71673 10.6702L2.71673 15.7268C2.71671 17.0949 2.71669 18.1976 2.83325 19.0648C2.95425 19.9652 3.21312 20.7232 3.81498 21.3253C4.41688 21.9275 5.17478 22.1865 6.07494 22.3075C6.9419 22.4242 8.0442 22.4241 9.41172 22.4241L15.5216 22.4241C16.8892 22.4241 17.9915 22.4242 18.8585 22.3075C19.7586 22.1865 20.5165 21.9275 21.1185 21.3253C21.7203 20.7232 21.9792 19.9652 22.1002 19.0648C22.2168 18.1976 22.2168 17.0949 22.2167 15.7268L22.2167 10.7817C22.8439 10.1285 23.1263 9.41857 23.2344 8.89688C23.2447 8.84685 23.2499 8.7959 23.2499 8.74481C23.2499 8.28068 23.1062 7.61343 22.8454 6.76438C22.5777 5.89313 22.1647 4.76235 21.578 3.34115C21.572 3.32667 21.5656 3.31238 21.5587 3.2983C21.4527 3.08124 21.2432 2.7624 20.9242 2.48641C20.5982 2.20439 20.1245 1.94059 19.5157 1.92803ZM20.7167 11.8258C20.413 11.9653 20.0748 12.0893 19.6984 12.1924C17.5763 12.7738 16.1442 11.9973 15.3831 11.3564C15.2147 11.4782 15.0308 11.5985 14.8336 11.7111C14.1992 12.0733 13.3785 12.3843 12.465 12.3717C11.2253 12.3546 10.2507 11.873 9.6347 11.4024C9.06156 11.8793 8.33756 12.2488 7.44488 12.3655C6.45255 12.4951 5.57952 12.3434 4.90603 12.1136C4.65265 12.0271 4.42092 11.9273 4.21673 11.823L4.21673 15.672C4.21673 17.1079 4.21832 18.1094 4.31988 18.865C4.41855 19.5991 4.59902 19.988 4.87584 20.2649C5.15262 20.5418 5.54117 20.7223 6.27489 20.8209C7.03021 20.9225 8.0313 20.9241 9.46673 20.9241L15.4667 20.9241C16.9021 20.9241 17.9032 20.9225 18.6585 20.8209C19.3923 20.7223 19.7808 20.5418 20.0576 20.2649C20.3344 19.9879 20.5149 19.5991 20.6136 18.865C20.7151 18.1094 20.7167 17.1079 20.7167 15.672L20.7167 11.8258ZM12.4857 10.8719C11.6678 10.8606 11.0288 10.5541 10.6337 10.276C10.9864 9.74266 11.2122 9.20536 11.3266 8.79221C11.4371 8.39302 11.2031 7.9798 10.8039 7.86925C10.4047 7.7587 9.99152 7.9927 9.88097 8.39189C9.63541 9.27864 8.76524 10.6802 7.25053 10.8781C6.52241 10.9732 5.88278 10.8619 5.3904 10.6939C4.88116 10.5202 4.57328 10.3016 4.50339 10.2357C4.47613 10.21 4.44699 10.1864 4.41621 10.1651C4.29202 10.0791 4.03124 9.85271 3.76985 9.57438C3.4935 9.28013 3.32049 9.03661 3.27465 8.9228C3.27465 8.9228 3.26834 8.90486 3.2625 8.86834C3.25633 8.82976 3.25164 8.77848 3.25031 8.71389C3.24763 8.58329 3.25918 8.4254 3.28325 8.25395C3.33224 7.90494 3.42251 7.57215 3.48518 7.40724C3.4879 7.40009 3.49051 7.3929 3.493 7.38566L4.1763 5.40728L4.18412 5.38398C4.26873 5.13186 4.3978 4.74728 4.5512 4.37802C4.62954 4.18944 4.70945 4.01662 4.78723 3.87504C4.87007 3.72426 4.92872 3.6494 4.95342 3.62487C4.99163 3.58693 5.11193 3.51895 5.35752 3.47389C5.58238 3.43263 5.81263 3.42787 5.96933 3.42787L12.9696 3.42787C13.8797 3.44063 15.3206 3.43656 16.6245 3.43138L17.1359 3.4293C18.2356 3.42476 19.157 3.42095 19.4848 3.42771C19.6554 3.43123 19.8056 3.50214 19.9428 3.62083C20.0759 3.73594 20.1654 3.87076 20.2025 3.94039C20.7727 5.32308 21.1638 6.39862 21.4115 7.20483C21.6424 7.95655 21.7321 8.42321 21.7475 8.67139C21.6151 9.19767 21.1207 10.2474 19.3021 10.7457C17.902 11.1293 16.9736 10.697 16.4524 10.295C16.6423 9.98441 16.8677 9.5041 17.0866 8.82089C17.213 8.42644 16.9957 8.0042 16.6012 7.87781C16.2068 7.75143 15.7845 7.96874 15.6581 8.3632C15.3922 9.19315 15.1575 9.54677 15.109 9.60799C14.934 9.80576 14.57 10.1342 14.0898 10.4084C13.6043 10.6857 13.049 10.8796 12.4857 10.8719Z" fill="#0C254B"/>
</svg>
