<svg width="25" height="24" viewBox="0 0 25 24" fill="none" xmlns="http://www.w3.org/2000/svg">
<path fill-rule="evenodd" clip-rule="evenodd" d="M8.25 6.5C8.25 4.15279 10.1528 2.25 12.5 2.25C14.8472 2.25 16.75 4.15279 16.75 6.5C16.75 8.84721 14.8472 10.75 12.5 10.75C10.1528 10.75 8.25 8.84721 8.25 6.5ZM12.5 4.13889C11.196 4.13889 10.1389 5.19599 10.1389 6.5C10.1389 7.80401 11.196 8.86111 12.5 8.86111C13.804 8.86111 14.8611 7.80401 14.8611 6.5C14.8611 5.19599 13.804 4.13889 12.5 4.13889Z" fill="#1F4ABE"/>
<path d="M14.75 17.5C14.75 15.1528 16.6528 13.25 19 13.25C21.3472 13.25 23.25 15.1528 23.25 17.5C23.25 19.8472 21.3472 21.75 19 21.75C16.6528 21.75 14.75 19.8472 14.75 17.5Z" fill="#1F4ABE"/>
<path d="M6 13.25C3.65279 13.25 1.75 15.1528 1.75 17.5C1.75 19.8472 3.65279 21.75 6 21.75C8.34721 21.75 10.25 19.8472 10.25 17.5C10.25 15.1528 8.34721 13.25 6 13.25Z" fill="#1F4ABE"/>
</svg>
