<svg width="32" height="32" viewBox="0 0 32 32" fill="none" xmlns="http://www.w3.org/2000/svg">
<path fill-rule="evenodd" clip-rule="evenodd" d="M16.0003 5.25C11.4539 5.25 7.72549 8.8216 7.72546 13.2793C7.72536 14.3065 7.65431 15.0726 7.17258 15.7624C7.0843 15.887 6.99082 16.011 6.88845 16.1467L6.80649 16.2556C6.67516 16.4304 6.53347 16.6221 6.4009 16.8237C6.13822 17.2232 5.87872 17.709 5.78935 18.2776C5.4971 20.137 6.84531 21.3245 8.1526 21.8501C12.7949 23.7166 19.2058 23.7166 23.8481 21.8501C25.1554 21.3245 26.5036 20.137 26.2113 18.2776C26.1219 17.709 25.8624 17.2232 25.5998 16.8237C25.4672 16.6221 25.3255 16.4304 25.1942 16.2556L25.1123 16.1468C25.01 16.0111 24.9164 15.887 24.8281 15.7624C24.3463 15.0727 24.2753 14.3066 24.2752 13.2794C24.2752 8.82164 20.5468 5.25 16.0003 5.25ZM9.22546 13.2794C9.22546 9.69657 12.235 6.75 16.0003 6.75C19.7656 6.75 22.7752 9.69657 22.7752 13.2794C22.7753 14.332 22.8288 15.5212 23.6002 16.6239L23.6026 16.6274C23.7056 16.7728 23.8168 16.9203 23.9211 17.0586L23.9949 17.1565C24.1235 17.3277 24.2413 17.4879 24.3464 17.6478C24.5592 17.9714 24.6882 18.2476 24.7295 18.5105C24.8626 19.3571 24.3093 20.0479 23.2885 20.4584C19.0053 22.1805 12.9954 22.1805 8.71217 20.4584C7.69135 20.0479 7.1381 19.3571 7.27116 18.5105C7.31248 18.2476 7.44144 17.9714 7.65423 17.6478C7.7594 17.4879 7.87721 17.3277 8.00578 17.1565L8.07958 17.0586C8.18387 16.9203 8.29507 16.7728 8.39802 16.6274L8.4005 16.6239C9.17191 15.5212 9.22536 14.332 9.22546 13.2794Z" fill="white"/>
<path d="M13.4627 24.409C13.1363 24.154 12.6649 24.2119 12.41 24.5384C12.155 24.8648 12.2129 25.3361 12.5393 25.5911C13.4704 26.3183 14.6851 26.75 16.001 26.75C17.317 26.75 18.5317 26.3183 19.4627 25.5911C19.7891 25.3361 19.847 24.8648 19.5921 24.5384C19.3371 24.2119 18.8658 24.154 18.5393 24.409C17.8781 24.9255 16.9901 25.25 16.001 25.25C15.0119 25.25 14.1239 24.9255 13.4627 24.409Z" fill="white"/>
</svg>
