<svg width="25" height="25" viewBox="0 0 25 25" fill="none" xmlns="http://www.w3.org/2000/svg">
<path fill-rule="evenodd" clip-rule="evenodd" d="M21.9552 1.5778C22.141 1.71969 22.25 1.94008 22.25 2.17383V16.1738C22.25 18.2449 20.5711 19.9238 18.5 19.9238C16.4289 19.9238 14.75 18.2449 14.75 16.1738C14.75 14.1028 16.4289 12.4238 18.5 12.4238C19.3442 12.4238 20.1233 12.7028 20.75 13.1736V9.15575L11.25 11.7467V18.6738C11.25 21.021 9.34721 22.9238 7 22.9238C4.65279 22.9238 2.75 21.021 2.75 18.6738C2.75 16.3266 4.65279 14.4238 7 14.4238C8.04875 14.4238 9.00878 14.8037 9.75 15.4333V5.17383C9.75 4.83562 9.97637 4.53925 10.3027 4.45026L21.3027 1.45026C21.5282 1.38876 21.7695 1.43592 21.9552 1.5778ZM11.25 10.1919L20.75 7.60097V3.15577L11.25 5.74668V10.1919ZM18.5 13.9238C19.7426 13.9238 20.75 14.9312 20.75 16.1738C20.75 17.4165 19.7426 18.4238 18.5 18.4238C17.2574 18.4238 16.25 17.4165 16.25 16.1738C16.25 14.9312 17.2574 13.9238 18.5 13.9238ZM7 15.9238C8.51878 15.9238 9.75 17.155 9.75 18.6738C9.75 20.1926 8.51878 21.4238 7 21.4238C5.48122 21.4238 4.25 20.1926 4.25 18.6738C4.25 17.155 5.48122 15.9238 7 15.9238Z" fill="#0C254B"/>
</svg>
