<svg width="61" height="18" viewBox="0 0 61 18" fill="none" xmlns="http://www.w3.org/2000/svg">
<rect width="61" height="18" rx="9" fill="#F7E6AD"/>
<path d="M6.71375 12C6.10708 11.9933 5.66708 11.8567 5.39375 11.59C5.12708 11.3233 4.99375 10.93 4.99375 10.41V10.33H4.93375C4.83375 10.75 4.68042 11.0467 4.47375 11.22C4.27375 11.3867 3.98375 11.47 3.60375 11.47C3.13708 11.47 2.78042 11.3467 2.53375 11.1C2.29375 10.8467 2.17375 10.49 2.17375 10.03C2.17375 9.53 2.31708 9.11667 2.60375 8.79C2.89708 8.46333 3.31375 8.16 3.85375 7.88L4.94375 7.32V6.78H5.99375V10.1C5.99375 10.32 6.04375 10.4733 6.14375 10.56C6.25042 10.6467 6.42708 10.69 6.67375 10.69H6.98375V11.73L6.71375 12ZM3.88375 10.16C4.27708 10.16 4.55042 10.1167 4.70375 10.03C4.86375 9.94333 4.94375 9.79 4.94375 9.57V8.29L4.12375 8.7C3.76375 8.87333 3.50042 9.02667 3.33375 9.16C3.16708 9.29333 3.08375 9.46 3.08375 9.66C3.08375 9.84 3.14042 9.97 3.25375 10.05C3.37375 10.1233 3.58375 10.16 3.88375 10.16ZM5.39375 5.97C5.23375 5.97 5.10042 5.92333 4.99375 5.83C4.89375 5.73 4.84375 5.57333 4.84375 5.36C4.84375 5.14 4.89375 4.98333 4.99375 4.89C5.10042 4.79 5.23375 4.74 5.39375 4.74H5.56375C5.72375 4.74 5.85375 4.79 5.95375 4.89C6.06042 4.98333 6.11375 5.14 6.11375 5.36C6.11375 5.57333 6.06042 5.73 5.95375 5.83C5.85375 5.92333 5.72375 5.97 5.56375 5.97H5.39375ZM3.90375 5.97C3.74375 5.97 3.61042 5.92333 3.50375 5.83C3.40375 5.73 3.35375 5.57333 3.35375 5.36C3.35375 5.14 3.40375 4.98333 3.50375 4.89C3.61042 4.79 3.74375 4.74 3.90375 4.74H4.07375C4.23375 4.74 4.36375 4.79 4.46375 4.89C4.57042 4.98333 4.62375 5.14 4.62375 5.36C4.62375 5.57333 4.57042 5.73 4.46375 5.83C4.36375 5.92333 4.23375 5.97 4.07375 5.97H3.90375ZM13.9005 12C13.6605 12 13.4405 11.9733 13.2405 11.92C13.0471 11.8667 12.8638 11.77 12.6905 11.63C12.2838 11.8767 11.7105 12 10.9705 12H6.71047V10.96L6.98047 10.69H7.45047L7.74047 10.19V4.6H8.80047V7.48L8.68047 8.65L8.74047 8.68C9.1138 8.26 9.50047 7.96333 9.90047 7.79C10.3071 7.61667 10.7538 7.53 11.2405 7.53C11.9871 7.53 12.5505 7.73333 12.9305 8.14C13.3171 8.54667 13.5105 9.11333 13.5105 9.84C13.5105 9.99333 13.5005 10.14 13.4805 10.28C13.4671 10.4133 13.4438 10.5367 13.4105 10.65C13.4905 10.6633 13.5705 10.6733 13.6505 10.68C13.7305 10.6867 13.8138 10.69 13.9005 10.69H14.1705V11.73L13.9005 12ZM10.9705 10.69C11.5638 10.69 11.9838 10.63 12.2305 10.51C12.4771 10.3833 12.6005 10.15 12.6005 9.81C12.6005 9.48333 12.5038 9.24 12.3105 9.08C12.1171 8.92 11.8105 8.84 11.3905 8.84H11.0905C10.7971 8.84 10.5405 8.85667 10.3205 8.89C10.1005 8.91667 9.89714 8.97333 9.71047 9.06C9.53047 9.14 9.3638 9.25667 9.21047 9.41C9.05714 9.55667 8.9038 9.74667 8.75047 9.98L8.32047 10.63L8.35047 10.69H10.9705ZM13.898 10.96L14.168 10.69H15.348L15.368 10.64C15.088 10.3867 14.8846 10.1133 14.758 9.82C14.638 9.52667 14.578 9.22667 14.578 8.92C14.578 8.63333 14.6246 8.36333 14.718 8.11C14.8113 7.85 14.9413 7.62667 15.108 7.44C15.2813 7.24667 15.4846 7.09667 15.718 6.99C15.958 6.87667 16.2213 6.82 16.508 6.82C16.7946 6.82 17.0546 6.87667 17.288 6.99C17.5213 7.09667 17.7213 7.24667 17.888 7.44C18.0613 7.62667 18.1946 7.85 18.288 8.11C18.3813 8.36333 18.428 8.63333 18.428 8.92C18.428 9.22667 18.3646 9.52667 18.238 9.82C18.118 10.1133 17.918 10.3867 17.638 10.64L17.658 10.69H18.868V11.73L18.598 12H18.488C18.1346 12 17.7913 11.9567 17.458 11.87C17.1246 11.7767 16.808 11.6233 16.508 11.41C16.208 11.6233 15.8913 11.7767 15.558 11.87C15.2313 11.9567 14.8913 12 14.538 12H13.898V10.96ZM16.508 10.51C16.848 10.3167 17.108 10.11 17.288 9.89C17.468 9.66333 17.558 9.40333 17.558 9.11C17.558 8.81 17.4613 8.57333 17.268 8.4C17.0813 8.22 16.8446 8.13 16.558 8.13H16.448C16.1613 8.13 15.9213 8.22 15.728 8.4C15.5413 8.57333 15.448 8.81 15.448 9.11C15.448 9.40333 15.538 9.66333 15.718 9.89C15.9046 10.11 16.168 10.3167 16.508 10.51ZM17.158 5.9C16.998 5.9 16.8646 5.85333 16.758 5.76C16.658 5.66 16.608 5.50333 16.608 5.29C16.608 5.07 16.658 4.91333 16.758 4.82C16.8646 4.72 16.998 4.67 17.158 4.67H17.328C17.488 4.67 17.618 4.72 17.718 4.82C17.8246 4.91333 17.878 5.07 17.878 5.29C17.878 5.50333 17.8246 5.66 17.718 5.76C17.618 5.85333 17.488 5.9 17.328 5.9H17.158ZM15.668 5.9C15.508 5.9 15.3746 5.85333 15.268 5.76C15.168 5.66 15.118 5.50333 15.118 5.29C15.118 5.07 15.168 4.91333 15.268 4.82C15.3746 4.72 15.508 4.67 15.668 4.67H15.838C15.998 4.67 16.128 4.72 16.228 4.82C16.3346 4.91333 16.388 5.07 16.388 5.29C16.388 5.50333 16.3346 5.66 16.228 5.76C16.128 5.85333 15.998 5.9 15.838 5.9H15.668ZM18.5952 10.96L18.8652 10.69H19.1152C19.5819 10.69 19.9019 10.6433 20.0752 10.55C20.2552 10.45 20.3452 10.2733 20.3452 10.02C20.3452 9.91333 20.3352 9.78 20.3152 9.62C20.3019 9.45333 20.2719 9.23333 20.2252 8.96L20.0652 8.06L21.0452 7.9L21.1852 8.8C21.2186 9.02667 21.2452 9.25 21.2652 9.47C21.2852 9.68333 21.2952 9.86667 21.2952 10.02C21.2952 10.7 21.1219 11.2 20.7752 11.52C20.4286 11.84 19.8752 12 19.1152 12H18.5952V10.96ZM20.3252 6.98C20.1652 6.98 20.0319 6.93333 19.9252 6.84C19.8252 6.74 19.7752 6.58333 19.7752 6.37C19.7752 6.15 19.8252 5.99333 19.9252 5.9C20.0319 5.8 20.1652 5.75 20.3252 5.75H20.4952C20.6552 5.75 20.7852 5.8 20.8852 5.9C20.9919 5.99333 21.0452 6.15 21.0452 6.37C21.0452 6.58333 20.9919 6.74 20.8852 6.84C20.7852 6.93333 20.6552 6.98 20.4952 6.98H20.3252ZM24.9217 12V10.93H26.8417V5.97H26.7517L25.2317 7.77L24.4117 7.08L26.1417 5.02H28.1317V10.93H29.7317V12H24.9217ZM33.0078 12.12C32.5611 12.12 32.1745 12.04 31.8478 11.88C31.5211 11.7133 31.2511 11.4767 31.0378 11.17C30.8245 10.8633 30.6645 10.4867 30.5578 10.04C30.4578 9.59333 30.4078 9.08333 30.4078 8.51C30.4078 7.94333 30.4578 7.43667 30.5578 6.99C30.6645 6.53667 30.8245 6.15667 31.0378 5.85C31.2511 5.54333 31.5211 5.31 31.8478 5.15C32.1745 4.98333 32.5611 4.9 33.0078 4.9C33.8945 4.9 34.5478 5.21667 34.9678 5.85C35.3945 6.48333 35.6078 7.37 35.6078 8.51C35.6078 9.65 35.3945 10.5367 34.9678 11.17C34.5478 11.8033 33.8945 12.12 33.0078 12.12ZM33.0078 11.01C33.4545 11.01 33.7645 10.8433 33.9378 10.51C34.1178 10.17 34.2078 9.71333 34.2078 9.14V7.88C34.2078 7.30667 34.1178 6.85333 33.9378 6.52C33.7645 6.18 33.4545 6.01 33.0078 6.01C32.5611 6.01 32.2478 6.18 32.0678 6.52C31.8945 6.85333 31.8078 7.30667 31.8078 7.88V9.14C31.8078 9.71333 31.8945 10.17 32.0678 10.51C32.2478 10.8433 32.5611 11.01 33.0078 11.01ZM39.0039 12.12C38.5572 12.12 38.1706 12.04 37.8439 11.88C37.5172 11.7133 37.2472 11.4767 37.0339 11.17C36.8206 10.8633 36.6606 10.4867 36.5539 10.04C36.4539 9.59333 36.4039 9.08333 36.4039 8.51C36.4039 7.94333 36.4539 7.43667 36.5539 6.99C36.6606 6.53667 36.8206 6.15667 37.0339 5.85C37.2472 5.54333 37.5172 5.31 37.8439 5.15C38.1706 4.98333 38.5572 4.9 39.0039 4.9C39.8906 4.9 40.5439 5.21667 40.9639 5.85C41.3906 6.48333 41.6039 7.37 41.6039 8.51C41.6039 9.65 41.3906 10.5367 40.9639 11.17C40.5439 11.8033 39.8906 12.12 39.0039 12.12ZM39.0039 11.01C39.4506 11.01 39.7606 10.8433 39.9339 10.51C40.1139 10.17 40.2039 9.71333 40.2039 9.14V7.88C40.2039 7.30667 40.1139 6.85333 39.9339 6.52C39.7606 6.18 39.4506 6.01 39.0039 6.01C38.5572 6.01 38.2439 6.18 38.0639 6.52C37.8906 6.85333 37.8039 7.30667 37.8039 7.88V9.14C37.8039 9.71333 37.8906 10.17 38.0639 10.51C38.2439 10.8433 38.5572 11.01 39.0039 11.01Z" fill="#0C254B"/>
<path opacity="0.4" d="M46.7295 8.99967C46.7295 12.463 49.537 15.2705 53.0003 15.2705C56.4636 15.2705 59.2712 12.463 59.2712 8.99967C59.2712 5.53639 56.4636 2.72884 53.0003 2.72884C49.537 2.72884 46.7295 5.53639 46.7295 8.99967Z" fill="#C27808"/>
<path d="M52.9998 5.64551C53.3272 5.64551 53.5851 5.89277 53.7497 6.22642L54.2994 7.33501C54.3161 7.36932 54.3556 7.41763 54.415 7.46183C54.4744 7.50598 54.5325 7.53034 54.5707 7.53676L55.5659 7.70347C55.9253 7.76387 56.2266 7.94007 56.3244 8.24689C56.4222 8.55346 56.279 8.87204 56.0205 9.13101L56.0202 9.13126L55.2471 9.91075C55.2165 9.94164 55.1822 9.99985 55.1606 10.0757C55.1393 10.151 55.1374 10.2196 55.1471 10.2639L55.1472 10.2645L55.3684 11.2288C55.4601 11.6301 55.4297 12.0281 55.1467 12.2362C54.8626 12.4449 54.4745 12.3524 54.1219 12.1424L53.189 11.5856C53.1499 11.5622 53.0826 11.5432 53.0014 11.5432C52.9208 11.5432 52.8521 11.5619 52.8104 11.5862L52.8098 11.5866L51.8788 12.1422C51.5266 12.353 51.1389 12.4439 50.8549 12.2349C50.572 12.0268 50.5401 11.6296 50.6321 11.2286L50.8532 10.2645L50.8534 10.2639C50.8631 10.2196 50.8612 10.151 50.8398 10.0757C50.8183 9.99985 50.7839 9.94164 50.7533 9.91075L49.9796 9.13069C49.7228 8.87174 49.5801 8.55343 49.677 8.24732C49.7743 7.94031 50.075 7.76389 50.4347 7.70345L51.429 7.53688L51.4293 7.53683C51.4658 7.5305 51.523 7.50642 51.5822 7.46216C51.6416 7.41781 51.6812 7.36939 51.6979 7.33501L51.6987 7.3333L52.2478 6.22612L52.248 6.22569C52.4142 5.89232 52.6728 5.64551 52.9998 5.64551Z" fill="#C27808"/>
</svg>
