<svg width="49" height="20" viewBox="0 0 49 20" fill="none" xmlns="http://www.w3.org/2000/svg">
<rect width="48.2791" height="20" rx="7" fill="#FEFBE0"/>
<path d="M11.276 6.272H7.064V9.008C7.248 8.752 7.52 8.544 7.88 8.384C8.24 8.216 8.628 8.132 9.044 8.132C9.708 8.132 10.248 8.272 10.664 8.552C11.08 8.824 11.376 9.18 11.552 9.62C11.736 10.052 11.828 10.512 11.828 11C11.828 11.576 11.72 12.092 11.504 12.548C11.288 13.004 10.956 13.364 10.508 13.628C10.068 13.892 9.52 14.024 8.864 14.024C8.024 14.024 7.344 13.808 6.824 13.376C6.304 12.944 5.988 12.368 5.876 11.648H6.944C7.048 12.104 7.268 12.46 7.604 12.716C7.94 12.972 8.364 13.1 8.876 13.1C9.508 13.1 9.984 12.912 10.304 12.536C10.624 12.152 10.784 11.648 10.784 11.024C10.784 10.4 10.624 9.92 10.304 9.584C9.984 9.24 9.512 9.068 8.888 9.068C8.464 9.068 8.092 9.172 7.772 9.38C7.46 9.58 7.232 9.856 7.088 10.208H6.056V5.312H11.276V6.272ZM13.8072 14.072C13.5992 14.072 13.4232 14 13.2792 13.856C13.1352 13.712 13.0632 13.536 13.0632 13.328C13.0632 13.12 13.1352 12.944 13.2792 12.8C13.4232 12.656 13.5992 12.584 13.8072 12.584C14.0072 12.584 14.1752 12.656 14.3112 12.8C14.4552 12.944 14.5272 13.12 14.5272 13.328C14.5272 13.536 14.4552 13.712 14.3112 13.856C14.1752 14 14.0072 14.072 13.8072 14.072ZM15.7987 9.572C15.7987 8.196 16.0227 7.124 16.4707 6.356C16.9187 5.58 17.7027 5.192 18.8227 5.192C19.9347 5.192 20.7147 5.58 21.1627 6.356C21.6107 7.124 21.8347 8.196 21.8347 9.572C21.8347 10.972 21.6107 12.06 21.1627 12.836C20.7147 13.612 19.9347 14 18.8227 14C17.7027 14 16.9187 13.612 16.4707 12.836C16.0227 12.06 15.7987 10.972 15.7987 9.572ZM20.7547 9.572C20.7547 8.876 20.7067 8.288 20.6107 7.808C20.5227 7.32 20.3347 6.928 20.0467 6.632C19.7667 6.336 19.3587 6.188 18.8227 6.188C18.2787 6.188 17.8627 6.336 17.5747 6.632C17.2947 6.928 17.1067 7.32 17.0107 7.808C16.9227 8.288 16.8787 8.876 16.8787 9.572C16.8787 10.292 16.9227 10.896 17.0107 11.384C17.1067 11.872 17.2947 12.264 17.5747 12.56C17.8627 12.856 18.2787 13.004 18.8227 13.004C19.3587 13.004 19.7667 12.856 20.0467 12.56C20.3347 12.264 20.5227 11.872 20.6107 11.384C20.7067 10.896 20.7547 10.292 20.7547 9.572Z" fill="#2E394A"/>
<path d="M35.4854 13.861C35.2679 13.7526 35.0118 13.7526 34.7942 13.861L32.0057 15.2501C31.4151 15.5443 30.7502 15.0128 30.9103 14.3747L31.5623 11.7763C31.6247 11.5279 31.5589 11.2648 31.387 11.0745L29.2347 8.69188C28.8057 8.21696 29.1104 7.4581 29.7499 7.40909L32.7524 7.17899C33.0333 7.15746 33.2801 6.98539 33.3967 6.7299L34.4362 4.45136C34.7108 3.84955 35.5688 3.84955 35.8434 4.45135L36.8829 6.7299C36.9995 6.98539 37.2464 7.15746 37.5272 7.17899L40.5298 7.40909C41.1692 7.4581 41.474 8.21695 41.0449 8.69188L38.8926 11.0745C38.7207 11.2648 38.655 11.5279 38.7173 11.7763L39.3693 14.3747C39.5294 15.0128 38.8645 15.5443 38.2739 15.2501L35.4854 13.861Z" fill="url(#paint0_linear_40_1994)"/>
<defs>
<linearGradient id="paint0_linear_40_1994" x1="35.1398" y1="4" x2="35.1398" y2="15.3333" gradientUnits="userSpaceOnUse">
<stop stop-color="#FFD572"/>
<stop offset="1" stop-color="#FEBD38"/>
</linearGradient>
</defs>
</svg>
