<svg width="116" height="40" viewBox="0 0 116 40" fill="none" xmlns="http://www.w3.org/2000/svg">
<rect width="116" height="40" rx="7" fill="#F04438"/>
<path d="M19.5943 29.256C18.3249 29.256 17.3403 28.9807 16.6403 28.43C15.9403 27.8887 15.5903 27.1093 15.5903 26.092C15.5903 25.8027 15.6276 25.518 15.7023 25.238C15.7863 24.9673 15.9309 24.692 16.1363 24.412C16.3509 24.132 16.6403 23.8427 17.0043 23.544C17.3776 23.236 17.8536 22.9093 18.4323 22.564L16.6123 20.324V18.154C17.0789 17.9393 17.5689 17.776 18.0823 17.664C18.6049 17.5427 19.1136 17.482 19.6083 17.482C20.6909 17.482 21.4843 17.6733 21.9883 18.056C22.4923 18.4387 22.7443 19.0407 22.7443 19.862C22.7443 20.4313 22.6089 20.9353 22.3383 21.374C22.0769 21.8033 21.6663 22.1953 21.1063 22.55L20.7563 22.774C20.9336 22.83 21.1343 22.8673 21.3583 22.886C21.5823 22.8953 21.8623 22.9 22.1983 22.9H23.8363V24.58L23.5563 25H22.0583C21.7876 25 21.5403 24.9813 21.3163 24.944C21.1016 24.9067 20.8916 24.8413 20.6863 24.748C20.4809 24.6453 20.2709 24.51 20.0563 24.342C19.8416 24.1647 19.6083 23.936 19.3563 23.656C18.9176 23.936 18.5536 24.1787 18.2643 24.384C17.9843 24.58 17.7603 24.7573 17.5923 24.916C17.4243 25.0653 17.3029 25.2053 17.2283 25.336C17.1629 25.4667 17.1303 25.602 17.1303 25.742V25.826C17.1303 26.218 17.3449 26.5353 17.7743 26.778C18.2036 27.03 18.8476 27.156 19.7063 27.156C20.2756 27.156 20.8263 27.0347 21.3583 26.792C21.8996 26.5587 22.3663 26.2227 22.7583 25.784L23.8083 27.436C23.2763 28.0147 22.6416 28.4627 21.9043 28.78C21.1669 29.0973 20.3969 29.256 19.5943 29.256ZM17.9563 19.848L19.6643 21.864L20.5043 21.388C21.0643 21.0613 21.3443 20.7067 21.3443 20.324C21.3443 20.0533 21.2136 19.862 20.9523 19.75C20.7003 19.638 20.2523 19.582 19.6083 19.582C19.3189 19.582 19.0249 19.6007 18.7263 19.638C18.4276 19.6753 18.1709 19.7173 17.9563 19.764V19.848ZM23.4159 23.32L23.8359 22.9H25.0539C25.0446 22.844 25.0399 22.788 25.0399 22.732C25.0399 22.676 25.0399 22.62 25.0399 22.564C25.0399 21.4347 25.6933 20.492 26.9999 19.736L27.8959 19.218H29.7439L30.8499 22.186C30.9526 22.4753 31.0786 22.6667 31.2279 22.76C31.3866 22.8533 31.6199 22.9 31.9279 22.9H32.3479V24.58L31.9279 25C31.3119 25 30.8266 24.9067 30.4719 24.72C30.1173 24.524 29.8233 24.2207 29.5899 23.81L29.5059 23.824V25H27.7279C27.0466 25 26.5006 24.8647 26.0899 24.594C25.6793 24.314 25.3899 23.964 25.2219 23.544H25.0959C24.8346 24.5147 24.2746 25 23.4159 25V23.32ZM26.3139 22.368C26.3139 22.5733 26.3933 22.7133 26.5519 22.788C26.7106 22.8627 26.9019 22.9 27.1259 22.9H29.1839L28.4839 21.052L27.2099 21.556C26.9113 21.6773 26.6873 21.8033 26.5379 21.934C26.3886 22.0553 26.3139 22.2 26.3139 22.368ZM31.9335 23.32L32.3535 22.9H32.7735C33.5202 22.9 33.8935 22.5733 33.8935 21.92V19.918H35.4335V21.92C35.4335 22.5733 35.7602 22.9 36.4135 22.9H36.9735V24.58L36.5535 25C35.8068 25 35.2375 24.8507 34.8455 24.552C34.4628 24.244 34.2062 23.7633 34.0755 23.11H33.9915C33.8608 23.7633 33.6368 24.244 33.3195 24.552C33.0022 24.8507 32.5402 25 31.9335 25V23.32ZM35.6295 18.798C35.3868 18.798 35.1862 18.7233 35.0275 18.574C34.8782 18.4247 34.8035 18.1867 34.8035 17.86C34.8035 17.5333 34.8782 17.2953 35.0275 17.146C35.1862 16.9967 35.3868 16.922 35.6295 16.922H35.9095C36.1522 16.922 36.3482 16.9967 36.4975 17.146C36.6562 17.2953 36.7355 17.5333 36.7355 17.86C36.7355 18.1867 36.6562 18.4247 36.4975 18.574C36.3482 18.7233 36.1522 18.798 35.9095 18.798H35.6295ZM33.4175 18.798C33.1748 18.798 32.9742 18.7233 32.8155 18.574C32.6662 18.4247 32.5915 18.1867 32.5915 17.86C32.5915 17.5333 32.6662 17.2953 32.8155 17.146C32.9742 16.9967 33.1748 16.922 33.4175 16.922H33.6975C33.9402 16.922 34.1362 16.9967 34.2855 17.146C34.4442 17.2953 34.5235 17.5333 34.5235 17.86C34.5235 18.1867 34.4442 18.4247 34.2855 18.574C34.1362 18.7233 33.9402 18.798 33.6975 18.798H33.4175ZM36.5546 23.32L36.9746 22.9H37.9406C38.4633 22.9 38.9299 22.8953 39.3406 22.886C39.7606 22.8673 40.1573 22.83 40.5306 22.774C40.9039 22.718 41.2679 22.634 41.6226 22.522C41.9773 22.41 42.3553 22.256 42.7566 22.06L43.2746 21.808V21.738L41.0346 21.262L38.9206 20.744V21.794H37.3106V20.716C37.3106 20.0533 37.4506 19.568 37.7306 19.26C38.0199 18.952 38.4586 18.798 39.0466 18.798C39.1213 18.798 39.1959 18.8027 39.2706 18.812C39.3546 18.8213 39.4479 18.8353 39.5506 18.854C39.6626 18.8727 39.7933 18.9007 39.9426 18.938C40.0919 18.9753 40.2786 19.022 40.5026 19.078L43.2046 19.778C43.5779 19.8807 43.9793 19.96 44.4086 20.016C44.8379 20.072 45.2626 20.1 45.6826 20.1H45.9626V22.2H44.9826C44.9919 22.4613 45.0666 22.6433 45.2066 22.746C45.3559 22.8487 45.6079 22.9 45.9626 22.9H46.3826V24.58L45.9626 25C45.2626 24.9907 44.7166 24.832 44.3246 24.524C43.9419 24.2067 43.7039 23.7167 43.6106 23.054L43.5546 23.096C42.9386 23.516 42.3833 23.852 41.8886 24.104C41.4033 24.3467 40.9413 24.538 40.5026 24.678C40.0639 24.8087 39.6393 24.8973 39.2286 24.944C38.8179 24.9813 38.3886 25 37.9406 25H36.5546V23.32ZM41.3846 28.01C41.1419 28.01 40.9413 27.9353 40.7826 27.786C40.6333 27.6367 40.5586 27.3987 40.5586 27.072C40.5586 26.7453 40.6333 26.5073 40.7826 26.358C40.9413 26.2087 41.1419 26.134 41.3846 26.134H41.6646C41.9073 26.134 42.1033 26.2087 42.2526 26.358C42.4113 26.5073 42.4906 26.7453 42.4906 27.072C42.4906 27.3987 42.4113 27.6367 42.2526 27.786C42.1033 27.9353 41.9073 28.01 41.6646 28.01H41.3846ZM49.5729 25.714C49.3115 25.574 49.0782 25.4573 48.8729 25.364C48.6675 25.2707 48.4669 25.196 48.2709 25.14C48.0842 25.084 47.8929 25.0467 47.6969 25.028C47.5102 25.0093 47.2955 25 47.0529 25H45.9609V23.32L46.3809 22.9H47.2209V14.64H48.9009V23.11C49.1529 23.1847 49.4095 23.2827 49.6709 23.404C49.9415 23.5253 50.2449 23.6793 50.5809 23.866L51.2669 24.244L50.2729 26.092L49.5729 25.714ZM51.6916 14.64H53.3716V25H51.6916V14.64ZM56.6834 26.26H57.2434C58.0928 26.26 58.7134 26.0873 59.1054 25.742C59.5068 25.3967 59.7028 24.8227 59.6934 24.02C59.6934 23.8053 59.6794 23.5813 59.6514 23.348C59.6234 23.1053 59.5861 22.8487 59.5394 22.578L59.2454 20.716L60.7714 20.478L60.9814 21.78C61.0188 21.9853 61.0468 22.1813 61.0654 22.368C61.0934 22.5547 61.1168 22.732 61.1354 22.9H62.4234V24.58L62.0034 25H61.1354C60.9768 26.036 60.5661 26.8527 59.9034 27.45C59.2501 28.0567 58.3681 28.36 57.2574 28.36H56.6834V26.26ZM72.232 25C71.9053 25 71.5926 24.9627 71.294 24.888C71.0046 24.804 70.7293 24.6547 70.468 24.44C69.8706 24.8133 69.0213 25 67.92 25H61.998V23.32L62.418 22.9H63.048L63.398 22.298V14.64H65.078V18.224L64.91 19.862L65.022 19.918C65.498 19.4233 66.0066 19.0687 66.548 18.854C67.0893 18.63 67.6866 18.518 68.34 18.518C69.4413 18.518 70.2673 18.8213 70.818 19.428C71.3686 20.0253 71.644 20.8607 71.644 21.934C71.644 22.2887 71.6113 22.5967 71.546 22.858C71.7793 22.886 72.008 22.9 72.232 22.9H72.652V24.58L72.232 25ZM67.92 22.9C68.368 22.9 68.7366 22.886 69.026 22.858C69.3246 22.8207 69.5626 22.7647 69.74 22.69C69.9266 22.606 70.0573 22.494 70.132 22.354C70.2066 22.214 70.244 22.032 70.244 21.808C70.244 21.4067 70.1133 21.108 69.852 20.912C69.5906 20.716 69.1566 20.618 68.55 20.618H68.13C67.71 20.618 67.3413 20.6367 67.024 20.674C66.7066 20.702 66.4266 20.7627 66.184 20.856C65.9413 20.9493 65.722 21.08 65.526 21.248C65.33 21.416 65.1433 21.6353 64.966 21.906L64.364 22.816L64.406 22.9H67.92ZM67.78 17.398C67.5373 17.398 67.3366 17.3233 67.178 17.174C67.0286 17.0247 66.954 16.7867 66.954 16.46C66.954 16.1333 67.0286 15.8953 67.178 15.746C67.3366 15.5967 67.5373 15.522 67.78 15.522H68.06C68.3026 15.522 68.4986 15.5967 68.648 15.746C68.8066 15.8953 68.886 16.1333 68.886 16.46C68.886 16.7867 68.8066 17.0247 68.648 17.174C68.4986 17.3233 68.3026 17.398 68.06 17.398H67.78ZM72.2382 23.32L72.6582 22.9H73.6242C74.1469 22.9 74.6135 22.8953 75.0242 22.886C75.4442 22.8673 75.8409 22.83 76.2142 22.774C76.5875 22.718 76.9515 22.634 77.3062 22.522C77.6609 22.41 78.0389 22.256 78.4402 22.06L78.9582 21.808V21.738L76.7182 21.262L74.6042 20.744V21.794H72.9942V20.716C72.9942 20.0533 73.1342 19.568 73.4142 19.26C73.7035 18.952 74.1422 18.798 74.7302 18.798C74.8049 18.798 74.8795 18.8027 74.9542 18.812C75.0382 18.8213 75.1315 18.8353 75.2342 18.854C75.3462 18.8727 75.4769 18.9007 75.6262 18.938C75.7755 18.9753 75.9622 19.022 76.1862 19.078L78.8882 19.778C79.2615 19.8807 79.6629 19.96 80.0922 20.016C80.5215 20.072 80.9462 20.1 81.3662 20.1H81.6462V22.2H80.5542L79.2382 23.096C78.6222 23.516 78.0669 23.852 77.5722 24.104C77.0869 24.3467 76.6249 24.538 76.1862 24.678C75.7475 24.8087 75.3229 24.8973 74.9122 24.944C74.5015 24.9813 74.0722 25 73.6242 25H72.2382V23.32Z" fill="white"/>
<path fill-rule="evenodd" clip-rule="evenodd" d="M90.2188 16.5625C90.2188 14.7503 91.6878 13.2812 93.5 13.2812C95.3122 13.2812 96.7812 14.7503 96.7812 16.5625C96.7812 18.3747 95.3122 19.8438 93.5 19.8438C91.6878 19.8438 90.2188 18.3747 90.2188 16.5625ZM93.5 14.2188C92.2056 14.2188 91.1562 15.2681 91.1562 16.5625C91.1562 17.8569 92.2056 18.9062 93.5 18.9062C94.7944 18.9062 95.8438 17.8569 95.8438 16.5625C95.8438 15.2681 94.7944 14.2188 93.5 14.2188Z" fill="white"/>
<path d="M94.3282 21.8903C92.7827 21.5194 91.1174 21.7502 89.7259 22.5787C89.621 22.6412 89.506 22.7065 89.3855 22.7748C88.9402 23.0275 88.4201 23.3225 88.0576 23.6774C87.8325 23.8977 87.7366 24.0794 87.7212 24.2198C87.709 24.3313 87.7372 24.5151 88.0189 24.7835C88.6663 25.4002 89.3241 25.7812 90.1194 25.7812H94.1251C94.384 25.7812 94.5939 25.9911 94.5939 26.25C94.5939 26.5089 94.384 26.7187 94.1251 26.7187H90.1194C88.983 26.7187 88.1043 26.1598 87.3722 25.4622C86.9478 25.0579 86.7363 24.6029 86.7893 24.118C86.8391 23.662 87.1133 23.2898 87.4018 23.0074C87.8632 22.5558 88.5366 22.1759 88.9821 21.9245C89.0838 21.8672 89.1736 21.8165 89.2463 21.7732C90.8538 20.816 92.7706 20.5524 94.547 20.9787C94.7987 21.0391 94.9538 21.2921 94.8934 21.5438C94.833 21.7956 94.58 21.9507 94.3282 21.8903Z" fill="white"/>
<path fill-rule="evenodd" clip-rule="evenodd" d="M97.5625 21.4062C96.0955 21.4062 94.9062 22.5955 94.9062 24.0625C94.9062 25.5295 96.0955 26.7188 97.5625 26.7188C99.0295 26.7188 100.219 25.5295 100.219 24.0625C100.219 22.5955 99.0295 21.4062 97.5625 21.4062ZM95.8438 24.0625C95.8438 23.7582 95.9228 23.4724 96.0615 23.2245L98.4005 25.5635C98.1526 25.7022 97.8668 25.7812 97.5625 25.7812C96.6133 25.7812 95.8438 25.0117 95.8438 24.0625ZM99.0635 24.9005L96.7245 22.5615C96.9724 22.4228 97.2582 22.3438 97.5625 22.3438C98.5117 22.3438 99.2812 23.1133 99.2812 24.0625C99.2812 24.3668 99.2022 24.6526 99.0635 24.9005Z" fill="white"/>
</svg>
