<svg width="12" height="14" viewBox="0 0 12 14" fill="none" xmlns="http://www.w3.org/2000/svg">
<g clip-path="url(#clip0_50_1312)">
<path d="M7.46851 12.1903C7.25437 12.6506 7.11282 13.15 7.05859 13.6738L11.5902 12.7401C11.8043 12.2799 11.9457 11.7804 12.0001 11.2566L7.46851 12.1903Z" fill="#24292E"/>
<path d="M11.5901 9.94277C11.8042 9.48263 11.9458 8.98307 12 8.4593L8.47005 9.18701V7.78808L11.59 7.14543C11.8041 6.68529 11.9457 6.18573 11.9999 5.66196L8.46994 6.38905V1.35808C7.92905 1.65246 7.44868 2.0443 7.0582 2.50651V6.68001L5.64645 6.97087V0.673828C5.10556 0.9681 4.62519 1.36005 4.2347 1.82225V7.26162L1.07592 7.91225C0.861779 8.37239 0.720124 8.87194 0.665789 9.39571L4.2347 8.66055V10.4223L0.409913 11.2101C0.195776 11.6702 0.0542281 12.1698 0 12.6935L4.00349 11.8689C4.32939 11.8032 4.6095 11.6164 4.79161 11.3594L5.52582 10.3043V10.3041C5.60204 10.1949 5.64645 10.0633 5.64645 9.92155V8.3697L7.0582 8.07884V10.8767L11.59 9.94256L11.5901 9.94277Z" fill="#24292E"/>
</g>
<defs>
<clipPath id="clip0_50_1312">
<rect width="12" height="13" fill="white" transform="translate(0 0.673828)"/>
</clipPath>
</defs>
</svg>
