<svg width="12" height="14" viewBox="0 0 12 14" fill="none" xmlns="http://www.w3.org/2000/svg">
<g clip-path="url(#clip0_40_2021)">
<path d="M7.46851 12.0167C7.25437 12.477 7.11282 12.9764 7.05859 13.5002L11.5902 12.5665C11.8043 12.1063 11.9457 11.6068 12.0001 11.083L7.46851 12.0167Z" fill="#3D47B4"/>
<path d="M11.5901 9.76894C11.8042 9.3088 11.9458 8.80924 12 8.28547L8.47005 9.01318V7.61426L11.59 6.9716C11.8041 6.51146 11.9457 6.0119 11.9999 5.48813L8.46994 6.21522V1.18425C7.92905 1.47863 7.44868 1.87047 7.0582 2.33268V6.50618L5.64645 6.79704V0.5C5.10556 0.794272 4.62519 1.18622 4.2347 1.64843V7.0878L1.07592 7.73842C0.861779 8.19856 0.720124 8.69812 0.665789 9.22189L4.2347 8.48672V10.2484L0.409913 11.0363C0.195776 11.4964 0.0542281 11.9959 0 12.5197L4.00349 11.6951C4.32939 11.6293 4.6095 11.4426 4.79161 11.1856L5.52582 10.1305V10.1303C5.60204 10.0211 5.64645 9.88948 5.64645 9.74773V8.19587L7.0582 7.90501V10.7029L11.59 9.76873L11.5901 9.76894Z" fill="#3D47B4"/>
</g>
<defs>
<clipPath id="clip0_40_2021">
<rect width="12" height="13" fill="white" transform="translate(0 0.5)"/>
</clipPath>
</defs>
</svg>
