<svg width="20" height="20" viewBox="0 0 20 20" fill="none" xmlns="http://www.w3.org/2000/svg">
<path fill-rule="evenodd" clip-rule="evenodd" d="M7.49935 1.04175C3.93251 1.04175 1.04102 3.93324 1.04102 7.50008C1.04102 11.0669 3.93251 13.9584 7.49935 13.9584C9.05768 13.9584 10.4871 13.4065 11.6028 12.4875L12.886 13.7707C12.5595 14.4602 12.6814 15.3093 13.2518 15.8797L15.7864 18.4143C16.5119 19.1398 17.6881 19.1398 18.4136 18.4143C19.139 17.6888 19.139 16.5126 18.4136 15.7872L15.8789 13.2525C15.3085 12.6821 14.4594 12.5602 13.7699 12.8868L12.4867 11.6036C13.4057 10.4879 13.9577 9.05844 13.9577 7.50008C13.9577 3.93324 11.0662 1.04175 7.49935 1.04175ZM2.29102 7.50008C2.29102 4.6236 4.62287 2.29175 7.49935 2.29175C10.3758 2.29175 12.7077 4.6236 12.7077 7.50008C12.7077 10.3766 10.3758 12.7084 7.49935 12.7084C4.62287 12.7084 2.29102 10.3766 2.29102 7.50008ZM14.9951 14.1364C14.7577 13.8991 14.373 13.8991 14.1357 14.1364C13.8984 14.3737 13.8984 14.7585 14.1357 14.9958L16.6703 17.5304C16.9076 17.7677 17.2924 17.7677 17.5297 17.5304C17.767 17.2931 17.767 16.9084 17.5297 16.671L14.9951 14.1364Z" fill="#9F9F9F"/>
</svg>
