<svg width="35" height="34" viewBox="0 0 35 34" fill="none" xmlns="http://www.w3.org/2000/svg">
<path d="M5.16496 15.834L20.9809 8.1657C22.0644 7.64037 23.216 8.74791 22.7334 9.85108L19.833 16.4806C19.6881 16.8118 19.6881 17.1883 19.833 17.5194L22.7334 24.149C23.216 25.2522 22.0644 26.3597 20.9809 25.8344L5.16495 18.166C4.19097 17.6938 4.19097 16.3063 5.16496 15.834Z" fill="#1F4ABE"/>
<path d="M4.6432 17L19.7243 17M20.9809 8.1657L5.16496 15.834C4.19097 16.3063 4.19097 17.6938 5.16495 18.166L20.9809 25.8344C22.0644 26.3597 23.216 25.2522 22.7334 24.149L19.833 17.5194C19.6881 17.1883 19.6881 16.8118 19.833 16.4806L22.7334 9.85108C23.216 8.74791 22.0644 7.64037 20.9809 8.1657Z" stroke="#1F4ABE" stroke-width="2" stroke-linecap="round"/>
</svg>
