<svg width="17" height="16" viewBox="0 0 17 16" fill="none" xmlns="http://www.w3.org/2000/svg">
<path opacity="0.4" d="M1.33301 7.99984C1.33301 11.9579 4.54163 15.1665 8.49967 15.1665C12.4577 15.1665 15.6663 11.9579 15.6663 7.99984C15.6663 4.0418 12.4577 0.83317 8.49967 0.83317C4.54163 0.83317 1.33301 4.0418 1.33301 7.99984Z" fill="#C27808"/>
<path d="M8.4984 4.1665C8.87254 4.1665 9.16725 4.44909 9.35539 4.8304L9.98367 6.09737C10.0027 6.13658 10.0479 6.19179 10.1158 6.2423C10.1836 6.29276 10.25 6.32059 10.2937 6.32794L11.431 6.51846C11.8418 6.58749 12.1862 6.78886 12.298 7.13952C12.4097 7.48987 12.246 7.85397 11.9506 8.14993L11.9503 8.15022L11.0668 9.04107C11.0317 9.07637 10.9925 9.14289 10.9679 9.22954C10.9435 9.31561 10.9413 9.394 10.9524 9.44466L10.9525 9.44536L11.2053 10.5474C11.3102 11.0061 11.2754 11.4609 10.9519 11.6987C10.6273 11.9373 10.1837 11.8315 9.78077 11.5915L8.71465 10.9552C8.66988 10.9284 8.59299 10.9068 8.50019 10.9068C8.40806 10.9068 8.32956 10.9281 8.28188 10.9559L8.2812 10.9563L7.21719 11.5913C6.81468 11.8322 6.37165 11.9361 6.04702 11.6973C5.72375 11.4594 5.68725 11.0054 5.79243 10.5472L6.04516 9.44536L6.04531 9.44466C6.0564 9.394 6.05423 9.31561 6.02979 9.22954C6.00519 9.14289 5.96596 9.07637 5.93094 9.04107L5.04676 8.14957C4.75323 7.85362 4.59012 7.48984 4.70092 7.14C4.81205 6.78913 5.15572 6.58752 5.5668 6.51844L6.70317 6.32807L6.70354 6.32801C6.7452 6.32079 6.81064 6.29326 6.8783 6.24267C6.9461 6.19199 6.99138 6.13666 7.01046 6.09737L7.01142 6.09541L7.63891 4.83006L7.63916 4.82956C7.82908 4.44857 8.1247 4.1665 8.4984 4.1665Z" fill="#C27808"/>
</svg>
