<svg width="25" height="25" viewBox="0 0 25 25" fill="none" xmlns="http://www.w3.org/2000/svg">
<path fill-rule="evenodd" clip-rule="evenodd" d="M22.6007 21.4233L22.7348 21.3703C23.0288 21.2533 23.2178 20.9763 23.2178 20.6633L23.2178 13.9143L22.4418 13.9413C21.9238 13.9593 21.5898 13.8933 21.3998 13.8333C21.1398 13.7533 20.8848 13.5763 20.6788 13.3323C20.2778 12.8623 20.0538 12.0313 20.4308 11.4133C20.9958 10.4773 21.4638 10.4383 22.4688 10.4383L23.2148 10.4383L23.2488 3.68328C23.2488 3.26428 22.9078 2.92327 22.4888 2.92327L2.50874 2.92327C2.08974 2.92327 1.74878 3.26426 1.74878 3.68826L1.7938 10.4383L2.53882 10.4383C3.53682 10.4383 4.0018 10.4783 4.5688 11.4173C4.9438 12.0323 4.71977 12.8633 4.31577 13.3363C4.11277 13.5773 3.85778 13.7543 3.59478 13.8353C3.40678 13.8943 3.07677 13.9603 2.56577 13.9423L1.78882 13.9143L1.78882 20.6633C1.78882 21.0823 2.12978 21.4233 2.54878 21.4233L22.6007 21.4233ZM10.2136 19.9223L13.6188 19.9223L13.6188 19.9233L21.7188 19.9233L21.7188 15.4173C21.4418 15.3893 21.1867 15.3383 20.9547 15.2653C20.4187 15.0993 19.9268 14.7663 19.5358 14.3023C18.7998 13.4403 18.3628 11.9223 19.1488 10.6353C19.9038 9.38428 20.7668 9.04926 21.7228 8.96426L21.7458 4.42227L10.2136 4.42227L10.2136 19.9223ZM8.71363 19.9223L8.71363 4.42227L3.25474 4.42227L3.28482 8.96426C4.23582 9.04926 5.09581 9.38526 5.85181 10.6383C6.63581 11.9223 6.19882 13.4403 5.45982 14.3053C5.07182 14.7653 4.57977 15.0993 4.04078 15.2663C3.81178 15.3383 3.56082 15.3883 3.28882 15.4163L3.28882 19.9223L8.71363 19.9223Z" fill="#0C254B"/>
</svg>
